<svg xmlns="http://www.w3.org/2000/svg" viewBox="538 3598 16.182 16.182">
  <defs>
    <style>
      .cls-1 {
        fill: #9095a6;
      }
    </style>
  </defs>
  <g id="calendar-with-a-clock-time-tools" transform="translate(538 3598)">
    <path id="Path_2418" data-name="Path 2418" class="cls-1" d="M2.024,2.529V.506a.506.506,0,0,1,1.011,0V2.529a.506.506,0,0,1-1.011,0Zm8.6.506a.505.505,0,0,0,.506-.506V.506a.506.506,0,0,0-1.012,0V2.529A.506.506,0,0,0,10.621,3.034Zm5.563,9.1a4.046,4.046,0,1,1-4.046-4.045A4.046,4.046,0,0,1,16.183,12.137Zm-1.011,0a3.034,3.034,0,1,0-3.034,3.034A3.038,3.038,0,0,0,15.172,12.137ZM4.047,6.068H2.024V8.091H4.047ZM2.024,11.125H4.047V9.1H2.024ZM5.058,8.091H7.081V6.068H5.058Zm0,3.034H7.081V9.1H5.058Zm-4.046.911V5.057H12.138V7.08h1.011V3.135a1.1,1.1,0,0,0-1.1-1.112h-.422v.506a1.011,1.011,0,1,1-2.023,0V2.023H3.541v.506a1.011,1.011,0,1,1-2.023,0V2.023H1.1A1.1,1.1,0,0,0,0,3.135v8.9a1.105,1.105,0,0,0,1.1,1.112H7.081V12.137H1.1A.1.1,0,0,1,1.012,12.036Zm9.1-3.945V6.068H8.092V8.091Zm3.54,4.045H12.138V10.619a.506.506,0,0,0-1.011,0v2.023a.505.505,0,0,0,.506.506h2.023a.506.506,0,0,0,0-1.012Z" transform="translate(-0.001)"/>
  </g>
</svg>
