<svg xmlns="http://www.w3.org/2000/svg" xmlns:xlink="http://www.w3.org/1999/xlink" viewBox="387 1409 301.718 269.727">
  <defs>
    <style>
      .cls-1, .cls-26, .cls-27, .cls-38 {
        fill: none;
      }

      .cls-2 {
        clip-path: url(#clip-path);
      }

      .cls-3 {
        fill: #f59392;
      }

      .cls-4 {
        fill: #b7733a;
      }

      .cls-5 {
        fill: #ffc5ba;
      }

      .cls-6 {
        fill: #85141f;
      }

      .cls-7 {
        fill: #f1ebeb;
      }

      .cls-8 {
        fill: #71471e;
      }

      .cls-9 {
        fill: #8a5c29;
      }

      .cls-10 {
        fill: #d49657;
      }

      .cls-11 {
        fill: #9a2935;
      }

      .cls-12 {
        fill: #9a2430;
      }

      .cls-13 {
        fill: #fc4e71;
      }

      .cls-14 {
        fill: #b85344;
      }

      .cls-15 {
        fill: #fff;
      }

      .cls-16 {
        fill: #d28d00;
      }

      .cls-17 {
        fill: #dd8080;
      }

      .cls-18 {
        fill: #ffbe00;
      }

      .cls-19 {
        fill: #f09c4f;
      }

      .cls-20 {
        fill: #d9793a;
      }

      .cls-21 {
        fill: #ff743c;
      }

      .cls-22 {
        fill: #f1522c;
      }

      .cls-23 {
        fill: #96caf8;
      }

      .cls-24 {
        fill: #74baf1;
      }

      .cls-25 {
        fill: #d23c23;
      }

      .cls-26, .cls-27, .cls-38 {
        stroke: #e3bb95;
        stroke-linecap: round;
        stroke-linejoin: round;
      }

      .cls-27 {
        stroke-dasharray: 8.115 8.115;
      }

      .cls-28 {
        fill: #f64f6f;
      }

      .cls-29 {
        fill: #ff6e5f;
      }

      .cls-30 {
        fill: #ca5043;
      }

      .cls-31 {
        fill: #eeab00;
      }

      .cls-32 {
        fill: #c0eff8;
      }

      .cls-33 {
        fill: #71a2e9;
      }

      .cls-34 {
        fill: #75a0e8;
      }

      .cls-35 {
        fill: #9371e3;
      }

      .cls-36 {
        fill: #d7befc;
      }

      .cls-37 {
        fill: #aa6c00;
      }

      .cls-38 {
        stroke-miterlimit: 10;
        stroke-dasharray: 8 8;
      }
    </style>
    <clipPath id="clip-path">
      <path id="Path_1339" data-name="Path 1339" class="cls-1" d="M0-614.585H301.718v269.727H0Z" transform="translate(0 614.585)"/>
    </clipPath>
  </defs>
  <g id="Group_1359" data-name="Group 1359" transform="translate(387 1409)">
    <g id="Group_1358" data-name="Group 1358" class="cls-2">
      <g id="Group_1193" data-name="Group 1193" transform="translate(95.635 95.823)">
        <path id="Path_1174" data-name="Path 1174" class="cls-3" d="M-2.188,0S.065,1.586-.575,3.913-1.122,7.637-1.4,8.2s-2.281-.338-2.211-3.1A11.045,11.045,0,0,0-3.9,1.417Z" transform="translate(3.9)"/>
      </g>
      <g id="Group_1194" data-name="Group 1194" transform="translate(89.114 94.523)">
        <path id="Path_1175" data-name="Path 1175" class="cls-3" d="M-1.121,0S-3.07,4.782-1.158,7.418-.43,9.682.557,12.568s4.1-5.875,4.36-7.091S-1.121,0-1.121,0" transform="translate(1.998)"/>
      </g>
      <g id="Group_1195" data-name="Group 1195" transform="translate(106.829 63.882)">
        <path id="Path_1176" data-name="Path 1176" class="cls-4" d="M0-.477a23.565,23.565,0,0,0,4.169,11.1c3.95,5.833,6.232,4.887,6.232,4.887S16.457,6.437,5.632-.477A9.973,9.973,0,0,0,0-.477" transform="translate(0 0.85)"/>
      </g>
      <g id="Group_1196" data-name="Group 1196" transform="translate(89.814 63.616)">
        <path id="Path_1177" data-name="Path 1177" class="cls-5" d="M-27.026,0s-5.455,5.22-7.18,6.7a48.423,48.423,0,0,0-3.905,3.485c-3.7,3.45-7.564,11.031-9.876,20.723-.639,2.681.263,7.38,5.932,6.394,2.328-.405.716-4.431,2.132-7.708,2.032-4.7,6.855-8.38,9.324-10.268,4.19-3.2,18.01-9.49,18.01-9.49S-20.618.493-27.026,0" transform="translate(48.164)"/>
      </g>
      <g id="Group_1197" data-name="Group 1197" transform="translate(91.998 63.616)">
        <path id="Path_1178" data-name="Path 1178" class="cls-3" d="M-19.664-24.707c4.19-3.2,18.009-9.49,18.009-9.49s-8.028-9.342-14.436-9.835c0,0-1.8,1.72-3.656,3.466,0,0,5.578,3.051,3.7,8.272-.389,1.084-13.458,5.486-16.238,19.85,0,0-.549,5.147-2.762,5.258a5.781,5.781,0,0,0,3.924.456c2.328-.405.716-4.431,2.132-7.708,2.032-4.7,6.855-8.38,9.324-10.268" transform="translate(35.044 44.032)"/>
      </g>
      <g id="Group_1198" data-name="Group 1198" transform="translate(131.04 21.738)">
        <path id="Path_1179" data-name="Path 1179" class="cls-6" d="M0-4.932S2.486,3.406,4.68.041s2.588-8.193-1.12-8.778S0-4.932,0-4.932" transform="translate(0.002 8.79)"/>
      </g>
      <g id="Group_1199" data-name="Group 1199" transform="translate(132.81 28.442)">
        <path id="Path_1180" data-name="Path 1180" class="cls-3" d="M-2.342-.216s-2.079-.9-1.807,1.454S-3.137,6.631-1.593,6.2c0,0,.868-6.623-.748-6.42" transform="translate(4.173 0.385)"/>
      </g>
      <g id="Group_1200" data-name="Group 1200" transform="translate(174.676 62.112)">
        <path id="Path_1181" data-name="Path 1181" class="cls-4" d="M-.009-17.959S13.176-29.078,10.764-32c0,0-11.093,3.223-10.773,14.046" transform="translate(0.015 32.005)"/>
      </g>
      <g id="Group_1201" data-name="Group 1201" transform="translate(172.669 53.958)">
        <path id="Path_1182" data-name="Path 1182" class="cls-5" d="M-4.059,0S4.493,11.264,7.587,15c4.316,5.209,13.557,10.23,16.258,11.835s-2.694,2.028-2.694,2.028.291,3.393-3.029,3.487S3.652,27.772.355,24.887C-3.459,21.551-7.131,18.2-7.131,18.2S-8.1.682-4.059,0" transform="translate(7.233)"/>
      </g>
      <g id="Group_1202" data-name="Group 1202" transform="translate(172.669 53.958)">
        <path id="Path_1183" data-name="Path 1183" class="cls-3" d="M-39.735-34.308c-2.7-1.605-11.942-6.626-16.258-11.835-3.094-3.735-11.646-15-11.646-15-4.042.682-3.073,18.2-3.073,18.2s1.019.929,2.535,2.29c.761-1.064,4.138-5.521,6.462-4.319,2.633,1.362,11.63,8.655,14.922,10.165a14.353,14.353,0,0,1,4.312,3.419,4.185,4.185,0,0,0,.052-.9s5.395-.423,2.694-2.028" transform="translate(70.813 61.142)"/>
      </g>
      <g id="Group_1203" data-name="Group 1203" transform="translate(75.563 110.461)">
        <path id="Path_1184" data-name="Path 1184" class="cls-4" d="M-30.342-11.463c-1.463,1.551-25.7,1.073-23.6,12.716s25.357,24.772,39.987,24.359,29.844,6.9,55.007,4.854,63.76-35.529,22.079-46.876-93.469,4.948-93.469,4.948" transform="translate(54.074 20.429)"/>
      </g>
      <g id="Group_1204" data-name="Group 1204" transform="translate(114.132 137.317)">
        <path id="Path_1185" data-name="Path 1185" class="cls-7" d="M-18.359-3.166c-.063-.323-1.768-2.536-3.384-2.475-2.194.084-10.6,8.194-10.96,14.411s5.64-.308,7.11-1.374,8.061-6.278,8.061-6.278Z" transform="translate(32.719 5.642)"/>
      </g>
      <g id="Group_1205" data-name="Group 1205" transform="translate(126.797 139.179)">
        <path id="Path_1186" data-name="Path 1186" class="cls-7" d="M-6.2-7.843l-3.953-1.5-.9-4.632,8.284.075Z" transform="translate(11.047 13.978)"/>
      </g>
      <g id="Group_1206" data-name="Group 1206" transform="translate(124.28 139.172)">
        <path id="Path_1187" data-name="Path 1187" class="cls-7" d="M-3.218-.009S-6.156,2.713-5.683,4s1.626,3.86,5.529.312c0,0,.335-4.534-3.063-4.325" transform="translate(5.734 0.016)"/>
      </g>
      <g id="Group_1207" data-name="Group 1207" transform="translate(128.95 98.012)">
        <path id="Path_1188" data-name="Path 1188" class="cls-8" d="M-49.246,0S-21.63,7.166-21.394,10.97-15.6,23.929-40.908,37.931-70.232,45.1-82.526,48c-7.415,1.748-7.1-8.565,2.266-10.07s16.73-4,6.565-5.691S-108.645,2.356-50.857,1.1" transform="translate(87.764)"/>
      </g>
      <g id="Group_1208" data-name="Group 1208" transform="translate(161.883 135.485)">
        <path id="Path_1189" data-name="Path 1189" class="cls-7" d="M-1.844-2.54C-1.735-2.85.276-4.791,1.865-4.5c2.158.4,9.29,9.651,8.744,15.854s-5.535-1.126-6.834-2.4-7.06-7.386-7.06-7.386Z" transform="translate(3.286 4.526)"/>
      </g>
      <g id="Group_1209" data-name="Group 1209" transform="translate(156.884 135.978)">
        <path id="Path_1190" data-name="Path 1190" class="cls-7" d="M-3.218-8.3l4.129-.91,1.561-4.452L-5.735-14.8Z" transform="translate(5.735 14.799)"/>
      </g>
      <g id="Group_1210" data-name="Group 1210" transform="translate(161.43 137.037)">
        <path id="Path_1191" data-name="Path 1191" class="cls-7" d="M-4.681-.094s2.51,3.122,1.855,4.329S-5,7.816-8.343,3.738c0,0,.33-4.534,3.662-3.832" transform="translate(8.343 0.168)"/>
      </g>
      <g id="Group_1211" data-name="Group 1211" transform="translate(96.099 102.343)">
        <path id="Path_1192" data-name="Path 1192" class="cls-9" d="M-25.09-5.686S-48.337-6.8-44.226,11.289s44,14.5,52.485,18.471,12.574,4.358,14.154-.633c.329-1.039,1.017-2.909-.789-6.305-3.249-6.114-17.258-9.4-22.315-10.505-3.351-.729,10.085-1.267,18.934-8.425,1.7-1.374,8.909-8.859,6.036-11.082C22.584-8.5,10.93-6.81,7.194-8.23-7.161-13.685-25.09-5.686-25.09-5.686" transform="translate(44.713 10.134)"/>
      </g>
      <g id="Group_1212" data-name="Group 1212" transform="translate(116.558 46.709)">
        <path id="Path_1193" data-name="Path 1193" class="cls-10" d="M-22.351-2.259A94.523,94.523,0,0,1-9.4-3.795a80.456,80.456,0,0,1,12.069,0c2.021.074,7.282,17.365,9.257,23.948,1.221,4.071,2.568,15.678,4.357,23.636a28.982,28.982,0,0,0,3.137,8.184s-3.95,7.153-30.7,7.754A95.079,95.079,0,0,1-39.833,55.71a23.092,23.092,0,0,0,2.362-6.443c3.364-14.479,10.534-47.449,15.12-51.525" transform="translate(39.833 4.025)"/>
      </g>
      <g id="Group_1213" data-name="Group 1213" transform="translate(106.829 48.47)">
        <path id="Path_1194" data-name="Path 1194" class="cls-10" d="M0-20.182a13.171,13.171,0,0,0,2.829-1.772c2.948-2.68,9.93-7.575,12.97-10.738,3.148-3.275,10.533-3.051,11.411-3.271S24.8-28.5,24.138-26.527,17.994-9.191,17.994-9.191,11.85-6.558,10.752-5.022s-.658.219-.439-3.73S3.072-18.646,0-20.182" transform="translate(0 35.967)"/>
      </g>
      <g id="Group_1214" data-name="Group 1214" transform="translate(159.055 46.939)">
        <path id="Path_1195" data-name="Path 1195" class="cls-10" d="M0,0S10.314.439,12.508,1.975s9.71,9.47,9.71,9.47S26.5,14.556,26.4,15.318c-.024.188-3.8,1.667-5.334,4.081s-5.193,6.144-4.974,8.339-.878,1.536-1.756.658S7.68,22.6,7.68,22.6l-2.414-.658Z"/>
      </g>
      <g id="Group_1215" data-name="Group 1215" transform="translate(141.591 46.538)">
        <path id="Path_1196" data-name="Path 1196" class="cls-4" d="M-1.15-.985S-3.735,1.476-.14,2.464s2.8.987,5.445.878S12.668,1.794,13.221.176s0-1.762,0-1.762S2.254-2.24-1.15-.985" transform="translate(2.05 1.756)"/>
      </g>
      <g id="Group_1216" data-name="Group 1216" transform="translate(147.42 46.714)">
        <path id="Path_1197" data-name="Path 1197" class="cls-4" d="M-36.293-71.589a28.989,28.989,0,0,1-3.137-8.184c-1.789-7.958-3.136-19.565-4.357-23.636-1.975-6.583-7.235-23.874-9.257-23.948-1.363-.05-2.868-.194-5.143-.225-2.793,1.742-4.564,3.12-4.564,3.12a12.488,12.488,0,0,0-.719,9.592c1.758,5.376,5.7,5.486,4.944,13.895-.794,8.8-5.52,8.816-6.066,15.947s1.588,7.187,3,11.12-.451,9.557-.451,9.557.107.109.307.3c22.018-1.346,25.441-7.537,25.441-7.537" transform="translate(64.679 127.581)"/>
      </g>
      <g id="Group_1217" data-name="Group 1217" transform="translate(168.721 47.965)">
        <path id="Path_1198" data-name="Path 1198" class="cls-4" d="M-16.049-13.32s-7.516-7.934-9.71-9.47a8.538,8.538,0,0,0-2.842-.948c2.842.948,3.389,3.53,3.948,5.206.878,2.633,4.161,7.685,3.612,11.084-.483,2.992-2.039,6.586-1.034,9.5.6-2.215,3.537-5.313,4.875-7.414,1.536-2.414,5.31-3.893,5.334-4.081.1-.762-4.182-3.874-4.182-3.874" transform="translate(28.601 23.738)"/>
      </g>
      <g id="Group_1218" data-name="Group 1218" transform="translate(160.025 47.193)">
        <path id="Path_1199" data-name="Path 1199" class="cls-4" d="M0,0S4.849,7.9,5.784,12.138s1.425,8.027,2.133,11.687S0,0,0,0"/>
      </g>
      <g id="Group_1219" data-name="Group 1219" transform="translate(142.927 37.153)">
        <path id="Path_1200" data-name="Path 1200" class="cls-5" d="M-14.582-13.36s-1.871-2.44,0-10.45l-11.405,2.524s2.743,5.52.768,8.795a4.285,4.285,0,0,0,3.84,1.629,15.03,15.03,0,0,0,6.8-2.5" transform="translate(25.987 23.81)"/>
      </g>
      <g id="Group_1220" data-name="Group 1220" transform="translate(116.814 57.911)">
        <path id="Path_1201" data-name="Path 1201" class="cls-4" d="M-18.1,0s-6.627,14.1-13.737,15.907c-.138.035-.277.074-.416.113a4.269,4.269,0,0,1,.329,1.755c-.219,3.95-.658,5.267.439,3.73s7.241-4.169,7.241-4.169S-18.754,1.975-18.1,0" transform="translate(32.249)"/>
      </g>
      <g id="Group_1221" data-name="Group 1221" transform="translate(134.891 9.637)">
        <path id="Path_1202" data-name="Path 1202" class="cls-5" d="M-.726-13.355S-2-4.184-.736,1.833C.355,7.042,3.781,11.4,10.343,11.194,21.459,10.847,26.2.114,26.772-8.674s-4.67-14.6-9.937-15.041c-2.912-.243-15.652-.721-17.562,10.359" transform="translate(1.294 23.801)"/>
      </g>
      <g id="Group_1222" data-name="Group 1222" transform="translate(144.678 9.638)">
        <path id="Path_1203" data-name="Path 1203" class="cls-3" d="M-10.667-.109a26.918,26.918,0,0,0-3.971-.023c-2.067,2.86-3.288,5.774-3.307,7.338,0,0-.366,6.365.439,8.559s-.366,5.486-1.1,6.656-.46,2.348.685,2.82.41,8.9,1.243,9.53C-5.908,34.128-1.294,23.59-.73,14.932-.157,6.145-5.4.33-10.667-.109" transform="translate(19.009 0.194)"/>
      </g>
      <g id="Group_1223" data-name="Group 1223" transform="translate(121.191 0)">
        <path id="Path_1204" data-name="Path 1204" class="cls-11" d="M-51.66-40.764s.9-7.019-.638-9.067.564-6.327-1.9-7.936-2.852-1.426-8.558,1.646-7.514-.054-10.094-1.024c-4.671-1.756-4.229,2.937-5.137,6.236-.639,2.321.235,4.586-1.055,5.4-3.123,1.97-16.337-4.377-12.241-13.054s2.633-14.382,14.483-13.5,14.059-1.975,21.395.366,8.248,5.705,7.9,11.191c-.351,5.535-.621,5.413-.768,9.363s-1.357,9.209-3.385,10.383" transform="translate(92.065 72.646)"/>
      </g>
      <g id="Group_1224" data-name="Group 1224" transform="translate(153.573 0.058)">
        <path id="Path_1205" data-name="Path 1205" class="cls-6" d="M-5.466-1.134a19.014,19.014,0,0,0-4.276-.887c1.9,1.782,3.729,4.1,4.071,6.592a24.191,24.191,0,0,1-.258,7.346A6.9,6.9,0,0,1-4.26,12.8c2.466,1.609.366,5.888,1.9,7.936s.638,9.067.638,9.067C.309,28.629,1.519,23.37,1.666,19.42s.416-3.828.768-9.363c.348-5.486-.564-8.851-7.9-11.191" transform="translate(9.742 2.021)"/>
      </g>
      <g id="Group_1225" data-name="Group 1225" transform="translate(159.665 27.654)">
        <path id="Path_1206" data-name="Path 1206" class="cls-3" d="M-.836-9.785s3.329-.592,4.133-2.994.244-5.109-2.286-4.6-3.13,6.7-1.847,7.59" transform="translate(1.489 17.438)"/>
      </g>
      <g id="Group_1226" data-name="Group 1226" transform="translate(151.286 25.733)">
        <path id="Path_1207" data-name="Path 1207" class="cls-12" d="M-3.943-1.206A1.615,1.615,0,0,1-4.74.935a1.615,1.615,0,0,1-2.141-.8A1.614,1.614,0,0,1-6.083-2a1.614,1.614,0,0,1,2.14.8" transform="translate(7.028 2.15)"/>
      </g>
      <g id="Group_1227" data-name="Group 1227" transform="translate(140.116 25.596)">
        <path id="Path_1208" data-name="Path 1208" class="cls-12" d="M-3.944-1.207a1.615,1.615,0,0,1-.8,2.141,1.615,1.615,0,0,1-2.14-.8A1.616,1.616,0,0,1-6.085-2a1.616,1.616,0,0,1,2.141.8" transform="translate(7.029 2.151)"/>
      </g>
      <g id="Group_1228" data-name="Group 1228" transform="translate(142.491 36.85)">
        <path id="Path_1209" data-name="Path 1209" class="cls-12" d="M-.129,0A54.115,54.115,0,0,0,8.533.016S7.925,4.8,3.114,4.19C.371,3.843-.56.651-.129,0" transform="translate(0.229)"/>
      </g>
      <g id="Group_1229" data-name="Group 1229" transform="translate(143.529 38.424)">
        <path id="Path_1210" data-name="Path 1210" class="cls-13" d="M-5.011-.026a9.322,9.322,0,0,0-3.92,1.332,3.6,3.6,0,0,0,2.3,1.263A4.368,4.368,0,0,0-1.951.45,7.02,7.02,0,0,0-5.011-.026" transform="translate(8.931 0.047)"/>
      </g>
      <g id="Group_1230" data-name="Group 1230" transform="translate(122.54 2.091)">
        <path id="Path_1211" data-name="Path 1211" class="cls-14" d="M-20.033-1.06s-6.583-1.865-9.216,0-2.432,4-2.962,5.705a13.664,13.664,0,0,1-2.414,4.937c-1.426,1.975-2.425,7.022,3.73,10.972,0,0,1.975-3.4.219-5.815s-1.426-4.608.219-7.022.658-5.925,3.4-6.254S-21.13-.072-20.033-1.06" transform="translate(35.702 1.889)"/>
      </g>
      <g id="Group_1231" data-name="Group 1231" transform="translate(148.193 39.301)">
        <path id="Path_1212" data-name="Path 1212" class="cls-3" d="M-7.848-10.613s-1.529-2-.439-8.3l-5.7,4.327h.436a3.927,3.927,0,0,1,2.27,3.31,5.411,5.411,0,0,1-.1,2.447,20.846,20.846,0,0,0,3.535-1.784" transform="translate(13.987 18.914)"/>
      </g>
      <g id="Group_1232" data-name="Group 1232" transform="translate(159.47 132.37)">
        <path id="Path_1213" data-name="Path 1213" class="cls-9" d="M-4.447-9.5a13.74,13.74,0,0,0,.84-5.532c-.327-2.45-3.594-2.613-4.247,0S-4.447-9.5-4.447-9.5" transform="translate(7.926 16.931)"/>
      </g>
      <g id="Group_1233" data-name="Group 1233" transform="translate(202.01 237.16)">
        <path id="Path_1214" data-name="Path 1214" class="cls-15" d="M0-16.988s.6,1.981,3.566,1.1,9.546-7.29,11.74-11.491c0,0,1.113-2.249-.376-2.9,0,0-6.208,10.873-14.931,13.287" transform="translate(0 30.275)"/>
      </g>
      <g id="Group_1234" data-name="Group 1234" transform="translate(202.01 234.307)">
        <path id="Path_1215" data-name="Path 1215" class="cls-16" d="M-15.161,0c.329,0,2.826,1.255,3.072,2.853.334,2.17-6.035,11.959-12.069,13.5s-.768-5.6,0-7.241S-19.523,0-19.523,0Z" transform="translate(27.019)"/>
      </g>
      <g id="Group_1235" data-name="Group 1235" transform="translate(202.011 234.307)">
        <path id="Path_1216" data-name="Path 1216" class="cls-16" d="M-19.088-3.647c-.246-1.6-2.743-2.853-3.072-2.853h-.477A8.761,8.761,0,0,1-24.089.862c-1.661,2.057-6.473,6.254-9.065,5.3-1.154,2.312-1.7,4.626,2,3.685,6.035-1.536,12.4-11.326,12.069-13.5" transform="translate(34.018 6.5)"/>
      </g>
      <g id="Group_1236" data-name="Group 1236" transform="translate(207.85 227.735)">
        <path id="Path_1217" data-name="Path 1217" class="cls-5" d="M-8.646-9.242l-1.465-7.228-5.3,4.523,1.532,2.476c-1.7,3.542.7,4.1,1.939,4.3,1.356.219,3.055-1.722,3.368-2.857a2.128,2.128,0,0,0-.077-1.216" transform="translate(15.409 16.47)"/>
      </g>
      <g id="Group_1237" data-name="Group 1237" transform="translate(206.455 239.053)">
        <path id="Path_1218" data-name="Path 1218" class="cls-15" d="M-.02-1.272s-.17-1.1.6-.987A28.792,28.792,0,0,1,4.008-.744c.909.349.74,1.159,0,1.282S-.02-1.272-.02-1.272" transform="translate(0.036 2.268)"/>
      </g>
      <g id="Group_1238" data-name="Group 1238" transform="translate(205.522 241.077)">
        <path id="Path_1219" data-name="Path 1219" class="cls-15" d="M-.017-1.078s-.144-.93.509-.837A24.332,24.332,0,0,1,3.4-.63c.771.3.628.981,0,1.086S-.017-1.078-.017-1.078" transform="translate(0.031 1.922)"/>
      </g>
      <g id="Group_1239" data-name="Group 1239" transform="translate(204.721 243.047)">
        <path id="Path_1220" data-name="Path 1220" class="cls-15" d="M-.015-.946s-.126-.815.447-.734A21.382,21.382,0,0,1,2.979-.553c.676.259.55.861,0,.952S-.015-.946-.015-.946" transform="translate(0.027 1.686)"/>
      </g>
      <g id="Group_1240" data-name="Group 1240" transform="translate(209.893 227.735)">
        <path id="Path_1221" data-name="Path 1221" class="cls-3" d="M-6.034-9.242-7.5-16.47l-1.857,1.586a11.518,11.518,0,0,0-.171,1.505,6.882,6.882,0,0,1,.181,5.686,8.446,8.446,0,0,1-1.407,2.1,4.913,4.913,0,0,0,1.428.42c1.356.219,3.055-1.722,3.368-2.857a2.128,2.128,0,0,0-.077-1.216" transform="translate(10.753 16.47)"/>
      </g>
      <g id="Group_1241" data-name="Group 1241" transform="translate(154.747 212.227)">
        <path id="Path_1222" data-name="Path 1222" class="cls-15" d="M0-16.692S.573-14.7,3.549-15.537s9.657-7.142,11.916-11.308c0,0,1.148-2.232-.332-2.9,0,0-6.375,10.777-15.133,13.055" transform="translate(0 29.747)"/>
      </g>
      <g id="Group_1242" data-name="Group 1242" transform="translate(154.805 209.329)">
        <path id="Path_1223" data-name="Path 1223" class="cls-16" d="M-15.161,0c.329,0,2.826,1.255,3.072,2.853.334,2.17-6.035,11.959-12.069,13.5s-.768-5.6,0-7.241S-19.523,0-19.523,0Z" transform="translate(27.019)"/>
      </g>
      <g id="Group_1243" data-name="Group 1243" transform="translate(154.831 209.329)">
        <path id="Path_1224" data-name="Path 1224" class="cls-16" d="M-15.127,0h-4.362s3.338,4.544,1.29,7.616c-1.749,2.624-5.793,7.159-8.759,8.02.14.811.914,1.2,2.834.712,6.035-1.536,12.4-11.326,12.069-13.5C-12.3,1.255-14.8,0-15.127,0" transform="translate(26.958)"/>
      </g>
      <g id="Group_1244" data-name="Group 1244" transform="translate(160.644 202.757)">
        <path id="Path_1225" data-name="Path 1225" class="cls-5" d="M-8.763-9.815l-1.556-7.677-5.3,4.524,1.532,2.476c-1.7,3.542.7,4.1,1.939,4.3,1.356.219,2.954-1.708,3.174-2.732a5.316,5.316,0,0,0,.208-.893" transform="translate(15.616 17.492)"/>
      </g>
      <g id="Group_1245" data-name="Group 1245" transform="translate(159.588 213.958)">
        <path id="Path_1226" data-name="Path 1226" class="cls-15" d="M-.02-1.272s-.17-1.1.6-.987A28.792,28.792,0,0,1,4.008-.744c.909.349.74,1.159,0,1.282S-.02-1.272-.02-1.272" transform="translate(0.036 2.268)"/>
      </g>
      <g id="Group_1246" data-name="Group 1246" transform="translate(158.656 215.981)">
        <path id="Path_1227" data-name="Path 1227" class="cls-15" d="M-.017-1.078s-.144-.93.509-.837A24.332,24.332,0,0,1,3.4-.63c.771.3.628.981,0,1.086S-.017-1.078-.017-1.078" transform="translate(0.031 1.922)"/>
      </g>
      <g id="Group_1247" data-name="Group 1247" transform="translate(157.855 217.951)">
        <path id="Path_1228" data-name="Path 1228" class="cls-15" d="M-.015-.946s-.126-.815.447-.734A21.382,21.382,0,0,1,2.979-.553c.676.259.55.861,0,.952S-.015-.946-.015-.946" transform="translate(0.027 1.686)"/>
      </g>
      <g id="Group_1248" data-name="Group 1248" transform="translate(163.225 202.758)">
        <path id="Path_1229" data-name="Path 1229" class="cls-3" d="M-5.2-10.956a5.406,5.406,0,0,0,.208-.893l-1.556-7.676L-7.88-18.384A23.645,23.645,0,0,1-9.26-15.8s2.122,2.926,1.756,4.754a4.311,4.311,0,0,1-1.418,2.71c.2.046.386.081.553.108C-7.014-8-5.416-9.932-5.2-10.956" transform="translate(9.26 19.525)"/>
      </g>
      <g id="Group_1249" data-name="Group 1249" transform="translate(177.121 77.35)">
        <path id="Path_1230" data-name="Path 1230" class="cls-9" d="M-16.041-135.46a97.553,97.553,0,0,0,39.828,14.394c9.031,1.148,20.408-1.1,23.7-2.414s26.552-1.317,36.646-16.238S97.3-162.1,95.543-167.806s-1.536-24.138-10.094-35.988S81.5-218.758,68.772-224.2c-7.733-3.307,0-20.408-30.063-16.677-20.015,2.484-42.972,30.971-45.225,62.686-.387,5.45-22.323,13.911-22.069,18.872.488,9.536,9.5,18.265,12.544,23.861" transform="translate(28.588 241.408)"/>
      </g>
      <g id="Group_1250" data-name="Group 1250" transform="translate(177.12 93.045)">
        <path id="Path_1231" data-name="Path 1231" class="cls-8" d="M-115.857-71.171c7.919-15.156,7.508-36.233-1.962-48.238s-12.838-6.746-26.753-2.922c-12.18,3.347-6.569-4.848-27.719,6.339A81.361,81.361,0,0,0-184.4-79.317c-.387,5.45-22.323,13.91-22.069,18.872.488,9.536,9.5,18.265,12.544,23.861a97.376,97.376,0,0,0,36.78,13.948c-.081-4.718.994-11.432,6.777-15.861,9.73-7.45,27.339-18.943,34.513-32.675" transform="translate(206.474 126.837)"/>
      </g>
      <g id="Group_1251" data-name="Group 1251" transform="translate(156.034 88.413)">
        <path id="Path_1232" data-name="Path 1232" class="cls-5" d="M-49.6,0s-11.63,7.68-15.58,8.778-5.925,0-9,0a10.246,10.246,0,0,1-3.593-.887c-1.49-.558-2.825-1-4.088.01C-84.047,9.655-85.8,5.267-88,7.9s5.486,6.8,8.558,8.119,14.7,7.241,18.433,7.9S-40.817,14.7-40.817,14.7l.878-1.536Z" transform="translate(88.385)"/>
      </g>
      <g id="Group_1252" data-name="Group 1252" transform="translate(161.417 93.309)">
        <path id="Path_1233" data-name="Path 1233" class="cls-5" d="M-6.894-5.43A1.721,1.721,0,0,0-8.137-8.048c-2.341-.732-2.63-1.317-3.729-1.609s.145,2.633,1.608,3.145S-6.894-5.43-6.894-5.43" transform="translate(12.285 9.678)"/>
      </g>
      <g id="Group_1253" data-name="Group 1253" transform="translate(154.332 93.31)">
        <path id="Path_1234" data-name="Path 1234" class="cls-5" d="M-8.471-4.84S-11.029-6.506-13.7-8.116s-.769,1.056-.33,1.612,1.536,2.12,1.536,2.12Z" transform="translate(15.097 8.626)"/>
      </g>
      <g id="Group_1254" data-name="Group 1254" transform="translate(158.747 92.489)">
        <path id="Path_1235" data-name="Path 1235" class="cls-3" d="M-29.433-16.085c-9.5-.671-16.083-.735-23.02-4.188a33.224,33.224,0,0,0,6.233,3.551c3.072,1.317,14.7,7.241,18.433,7.9S-7.6-18.038-7.6-18.038l.878-1.536-6.666-9.09c-1.9,3.726-7.409,13.191-16.046,12.58" transform="translate(52.453 28.665)"/>
      </g>
      <g id="Group_1255" data-name="Group 1255" transform="translate(196.524 96.401)">
        <path id="Path_1236" data-name="Path 1236" class="cls-17" d="M0-13.7c3.888-2.086,7.077-4,7.077-4l.878-1.536L4.587-24.411C4.854-21.322,3.432-17.392,0-13.7" transform="translate(0 24.411)"/>
      </g>
      <g id="Group_1256" data-name="Group 1256" transform="translate(155.729 129.448)">
        <path id="Path_1237" data-name="Path 1237" class="cls-18" d="M-55.6,0s-3.292,6.8-6.583,9.436S-79.716,19.584-88.512,29.99C-98.775,42.132-99.7,60.565-98.826,67.587s5.174,13.549,8.685,10.7,3.823-13.329,8.65-19.693S-70.737,43.668-61.74,38.182-35.408,22.6-30.8,16.019A49.783,49.783,0,0,0-24.216,1.1Z" transform="translate(99.08)"/>
      </g>
      <g id="Group_1257" data-name="Group 1257" transform="translate(159.795 131.886)">
        <path id="Path_1238" data-name="Path 1238" class="cls-16" d="M-82.1-17.364a42.761,42.761,0,0,0,4.521-8.627c-.986-.525-2.129-1.066-3.45-1.635-20.82-8.961-30.834,3.055-30.834,3.055a46.4,46.4,0,0,0,7.764,7.951c4.883,3.952-2.418,9.772-7.764,13.226s-29.783,15.539-32.816,38.572a60.715,60.715,0,0,1-1.634,8.634c1.524,1.74,3.279,2.382,4.873,1.087,3.511-2.853,3.823-13.329,8.65-19.693S-122.038,10.285-113.041,4.8-86.708-10.781-82.1-17.364" transform="translate(146.314 30.946)"/>
      </g>
      <g id="Group_1258" data-name="Group 1258" transform="translate(204.73 140.169)">
        <path id="Path_1239" data-name="Path 1239" class="cls-16" d="M-8.257-.507S-6.905,3.567-13.5,13.607s15.647-2.1,16.378-8.831S4.324-1.108-8.257-.507" transform="translate(14.715 0.904)"/>
      </g>
      <g id="Group_1259" data-name="Group 1259" transform="translate(186.26 129.009)">
        <path id="Path_1240" data-name="Path 1240" class="cls-18" d="M-81.09-1.964a24.223,24.223,0,0,1-.878,23.7c-7.461,12.508-18.872,13.386-23.7,18.213s-14.7,15.58-13.605,25.894,4.169,25.455,2.853,30.941a5.331,5.331,0,0,1-7.022,4.171c-4.256-3.829-1.1-4.61-7.242-10.974S-144.29,68.956-144.508,59.7c-.312-13.3,11.85-30.282,25.455-43.449S-104.789-3.5-104.789-3.5Z" transform="translate(144.513 3.5)"/>
      </g>
      <g id="Group_1260" data-name="Group 1260" transform="translate(199.479 134.103)">
        <path id="Path_1241" data-name="Path 1241" class="cls-16" d="M-63.066-25.752A24.211,24.211,0,0,0-60.7-45.894c-12.632,1.2-21.669,6.144-20.584,9.129,0,0,2.762,4.758-1.216,11.148s-32.358,20.726-29.725,41.5c1.915,15.111,8.627,26.964,5.952,35.685a10.861,10.861,0,0,0,1.729,1.9A5.331,5.331,0,0,0-97.518,49.3c1.317-5.486-1.755-20.627-2.853-30.941S-91.593-2.711-86.765-7.539s16.238-5.705,23.7-18.213" transform="translate(112.392 45.894)"/>
      </g>
      <g id="Group_1261" data-name="Group 1261" transform="translate(226.148 35.445)">
        <path id="Path_1242" data-name="Path 1242" class="cls-19" d="M-14.8-27.6s4.675-3.125,5.353-7.811c.458-3.17-1.013-6.144-3.155-9.655-1.735-2.846-8.009-5.047-12.837-3.73S-14.8-27.6-14.8-27.6" transform="translate(26.369 49.189)"/>
      </g>
      <g id="Group_1262" data-name="Group 1262" transform="translate(207.787 25.596)">
        <path id="Path_1243" data-name="Path 1243" class="cls-18" d="M-4.349-16.363s-6.574-9.279-1.442-11.445c3.438-1.451,18.47-3.45,24.907,4.352C21.3-20.814,22.49-9.771,20.958-7.488S-1.151-15.341-4.349-16.363" transform="translate(7.75 29.16)"/>
      </g>
      <g id="Group_1263" data-name="Group 1263" transform="translate(211.27 26.08)">
        <path id="Path_1244" data-name="Path 1244" class="cls-16" d="M-32.25-27.09c1.533-2.283.338-13.326-1.842-15.967-2.455-2.975-6.16-4.523-10-5.221.483.725,4.127,2.272,4.72,3.612s1.864,4.168,1.984,5.754c.329,4.389-14.386-3.965-20.085,2.926-.01.012,0,.034-.005.05,3.443,1.156,23.7,11.111,25.224,8.847" transform="translate(57.473 48.278)"/>
      </g>
      <g id="Group_1264" data-name="Group 1264" transform="translate(234.887 39.113)">
        <path id="Path_1245" data-name="Path 1245" class="cls-20" d="M-3.623-22.912s4.675-3.125,5.353-7.811c.458-3.17-1.013-6.144-3.155-9.655a4.444,4.444,0,0,0-.323-.454c.233,2.162.535,6.242-.177,8.49-1,3.156-4.532,5.626-4.532,5.626,1.63,2.258,2.833,3.805,2.833,3.805" transform="translate(6.456 40.833)"/>
      </g>
      <g id="Group_1265" data-name="Group 1265" transform="translate(192.765 77.171)">
        <path id="Path_1246" data-name="Path 1246" class="cls-19" d="M-25.92-.345s-3.63-1.34-7.58,1.952A76.576,76.576,0,0,1-45.888,9.969c-2.414,1.1,10.314,8.778,11.411,16.9S-21.97.533-21.97.533Z" transform="translate(46.192 0.615)"/>
      </g>
      <g id="Group_1266" data-name="Group 1266" transform="translate(201.111 77.173)">
        <path id="Path_1247" data-name="Path 1247" class="cls-20" d="M-15.248-.343a7.406,7.406,0,0,0-5.214.46c.416,1.211,1.188,4.588-.711,9.614a46.549,46.549,0,0,1-6,10.167,15.309,15.309,0,0,1,3.368,6.97C-22.709,34.986-11.3.535-11.3.535Z" transform="translate(27.174 0.611)"/>
      </g>
      <g id="Group_1267" data-name="Group 1267" transform="translate(193.484 73.272)">
        <path id="Path_1248" data-name="Path 1248" class="cls-19" d="M-50.251,0s20.847,6.583,22.6,7.68S-13.6,24.8-11.849,26.552-27.064,38.49-27.064,38.49l-2.121-1.844s-.3,16.2,0,21.594c.713,12.782-3.785,20.682-3.785,20.682s-3.9-5.431-38.88-9.433c-6.7-.766-13.237-2.336-15.192-3.218C-93.844,63.2-84.7,54.2-84.483,49.154s5.238-24.874,5.238-24.874S-75.413,11.17-66.05,5.047c0,0,4.228,2.664,8.266,1.113C-50.231,3.257-50.251,0-50.251,0" transform="translate(89.554 0)"/>
      </g>
      <g id="Group_1268" data-name="Group 1268" transform="translate(215.782 73.272)">
        <path id="Path_1249" data-name="Path 1249" class="cls-20" d="M0-7.538A9.943,9.943,0,0,0,11.592-6.463c6.656-3.663,7.471-6.316,7.471-6.316L17-13.433l-9.248,3.9L1.592-8.438Z" transform="translate(0 13.433)"/>
      </g>
      <g id="Group_1269" data-name="Group 1269" transform="translate(216.987 66.338)">
        <path id="Path_1250" data-name="Path 1250" class="cls-5" d="M-20.694,0s-1.373,5.2-.386,6.933-9.107,10.884-15.8,5.047a20.223,20.223,0,0,0,4.028-.916c1.677-.641,0-6.127,0-6.127Z" transform="translate(36.879)"/>
      </g>
      <g id="Group_1270" data-name="Group 1270" transform="translate(221.015 66.338)">
        <path id="Path_1251" data-name="Path 1251" class="cls-3" d="M0-6.313s.24.786.448,1.8a15.069,15.069,0,0,0,1.668.68C6.8-2.253,4.5.616,3.419,2.363c4.835-1.168,9-5.536,8.353-6.679-.987-1.734.386-6.933.386-6.933Z" transform="translate(0 11.25)"/>
      </g>
      <g id="Group_1271" data-name="Group 1271" transform="translate(207.186 38.712)">
        <path id="Path_1252" data-name="Path 1252" class="cls-5" d="M-19.265-.008S-8.513,7.234-7.2,10.745-7.416,26.105-7.854,27.2s-.219,0-.439,1.1-2.414,5.047-7.022,7.68c-2.713,1.55-8.772,1.207-13.279-1.858-3.15-2.142-5.5-6.123-5.593-9.553-.219-8.339-.439-8.558,1.317-13.825s9-10.972,13.605-10.752" transform="translate(34.333 0.014)"/>
      </g>
      <g id="Group_1272" data-name="Group 1272" transform="translate(212.233 38.717)">
        <path id="Path_1253" data-name="Path 1253" class="cls-3" d="M-28.243-13.749C-29.56-17.26-40.312-24.5-40.312-24.5c-.051,0-.1,0-.156,0-6.109,1.448-8.5,5.523-8.244,11.529,0,0-.865,7.906,0,9.256A3.556,3.556,0,0,1-48.9.046c-.551.951-1.429,3.072-1.429,3.072s.111.424,1.043.688,2.506.775,2.506.775V5.4a7.39,7.39,0,0,0,5.233,5.473c1.114.377,3.945.487,4.38.977a5.471,5.471,0,0,0,.809-.363c4.608-2.633,6.8-6.583,7.022-7.68s0,0,.439-1.1,1.975-12.947.658-16.458" transform="translate(50.333 24.502)"/>
      </g>
      <g id="Group_1273" data-name="Group 1273" transform="translate(213.854 66.434)">
        <path id="Path_1254" data-name="Path 1254" class="cls-12" d="M-.013-3.919a54.139,54.139,0,0,0,8.1-3.066S9.22-2.3,4.508-1.157C1.821-.5-.185-3.158-.013-3.919" transform="translate(0.023 6.985)"/>
      </g>
      <g id="Group_1274" data-name="Group 1274" transform="translate(215.782 68.619)">
        <path id="Path_1255" data-name="Path 1255" class="cls-13" d="M-4.078-.823A9.325,9.325,0,0,0-7.267,1.817a3.6,3.6,0,0,0,2.6.36A4.368,4.368,0,0,0-1.048-1.466a7.03,7.03,0,0,0-3.03.643" transform="translate(7.267 1.466)"/>
      </g>
      <g id="Group_1275" data-name="Group 1275" transform="translate(216.974 58.8)">
        <path id="Path_1256" data-name="Path 1256" class="cls-12" d="M-.009-1.959c.1.629.959-.457,2.165-.646s2.3.589,2.2-.039S3.2-3.629,2-3.44s-2.1.853-2,1.481" transform="translate(0.017 3.491)"/>
      </g>
      <g id="Group_1276" data-name="Group 1276" transform="translate(209.219 59.502)">
        <path id="Path_1257" data-name="Path 1257" class="cls-12" d="M0-1.62c.039.635.478-.338,1.5-.4s2.242.811,2.2.176-.9-1.1-1.921-1.038S-.04-2.255,0-1.62" transform="translate(0.003 2.888)"/>
      </g>
      <g id="Group_1277" data-name="Group 1277" transform="translate(204.8 37.676)">
        <path id="Path_1258" data-name="Path 1258" class="cls-21" d="M-40.13-14.762s-2.962,1.865-4.608,2.633-1.207,1.536-2.853,1.756-3.84,1.317-6.144.549-9.838-6.154-15.4.269c0,0-8.3-14.752,6.071-16.4s15.693,2.962,19.916,3.182,4,6.254,3.016,8.009" transform="translate(71.518 26.307)"/>
      </g>
      <g id="Group_1278" data-name="Group 1278" transform="translate(228.727 49.222)">
        <path id="Path_1259" data-name="Path 1259" class="cls-22" d="M-5.752-22.763s7.68-6.283,2.962-17.8l-7.461,4.389s.11,5.059,1.317,6.918a6.391,6.391,0,0,1,1.317,4.053c0,1.207,1.975,3.072,2.414-.439s.935.119-.549,2.882" transform="translate(10.25 40.567)"/>
      </g>
      <g id="Group_1279" data-name="Group 1279" transform="translate(211.188 73.271)">
        <path id="Path_1260" data-name="Path 1260" class="cls-20" d="M-49.709-100.905s4.5-7.9,3.785-20.682c-.3-5.39,0-21.594,0-21.594l2.121,1.844s16.97-10.183,15.215-11.938-14.044-17.775-15.8-18.872-22.6-7.68-22.6-7.68.02,3.257-7.534,6.16a7.089,7.089,0,0,1-.8.251c-.008.09-.018.178-.023.269,0,0-4.606,5.508-4.82,11.638s0,5.042,0,13.3c0,2.194,0,8.574-3.832,12.821-4.342,4.812-3.915,8.318-3.55,14.023a38.956,38.956,0,0,1-1.045,11.029c34.985,4,38.88,9.433,38.88,9.433" transform="translate(88.589 179.827)"/>
      </g>
      <g id="Group_1280" data-name="Group 1280" transform="translate(219.615 100.929)">
        <path id="Path_1261" data-name="Path 1261" class="cls-23" d="M-22.948-3.537s2.962-3.488,5.321-2.631c1.5.546,5.212,4.825,5.212,4.825L6.045,18.485s2.657,2.905,0,5.486c-1.8,1.743-18.872,16.458-18.872,16.458s-6.144,2.633-9-.439S-39.6,18.924-39.6,18.924s-2.414-3.95-.658-5.925S-22.948-3.537-22.948-3.537" transform="translate(40.896 6.303)"/>
      </g>
      <g id="Group_1281" data-name="Group 1281" transform="translate(233.173 114.548)">
        <path id="Path_1262" data-name="Path 1262" class="cls-24" d="M-2.177-.861s3.789-1.515,4.557,0,1.932,2.692.511,4.477C1.669,5.152.506,7.457-2.178,5.372s-1.813-6.322,0-6.233" transform="translate(3.879 1.534)"/>
      </g>
      <g id="Group_1282" data-name="Group 1282" transform="translate(234.887 105.143)">
        <path id="Path_1263" data-name="Path 1263" class="cls-24" d="M-16.888-.954s-.259-.3-.666-.747c.008.011,3.351,4.921,3.351,7.589s6.352,17.619,1.585,23.246c-4,4.718-9.427,9.886-17.479,6.869,1.717,2.019,3.111,3.633,3.8,4.375,2.853,3.072,9,.439,9,.439S-.223,26.1,1.572,24.359c2.657-2.581,0-5.486,0-5.486Z" transform="translate(30.097 1.701)"/>
      </g>
      <g id="Group_1283" data-name="Group 1283" transform="translate(243.073 100.474)">
        <path id="Path_1264" data-name="Path 1264" class="cls-5" d="M-23.6-8.147-34.354.411s-3.73.439-5.267,2.194-4.389,6.144-.439,9.216,11.191,1.756,14.044-.439a63.176,63.176,0,0,0,6.583-6.364S-12.2-4.242-12.045-8.717c.059-1.745-.882-4.669-1.9-5.575C-15.8-15.935-23.6-8.147-23.6-8.147" transform="translate(42.062 14.519)"/>
      </g>
      <g id="Group_1284" data-name="Group 1284" transform="translate(245.075 100.473)">
        <path id="Path_1265" data-name="Path 1265" class="cls-3" d="M-22.716-6.552A5.975,5.975,0,0,1-21.685-.67c-1.463,4.377-7.461,12.685-18.8,15.334,3.95,3.072,11.191,1.756,14.044-.439a63.176,63.176,0,0,0,6.583-6.364S-12.619-1.4-12.468-5.875c.058-1.745-.882-4.669-1.9-5.575-1.377-1.222-6.042,2.769-8.346,4.9" transform="translate(40.483 11.677)"/>
      </g>
      <g id="Group_1285" data-name="Group 1285" transform="translate(251.023 81.631)">
        <path id="Path_1266" data-name="Path 1266" class="cls-19" d="M-1.717,0S9.207,11.516,6.72,13.8s-4.828,7.991-5.705,8.43S-5.618,1.468-1.717,0" transform="translate(3.059)"/>
      </g>
      <g id="Group_1286" data-name="Group 1286" transform="translate(211.276 37.676)">
        <path id="Path_1267" data-name="Path 1267" class="cls-22" d="M-28-4.521c-4.222-.219-5.543-4.828-19.916-3.182a17.053,17.053,0,0,0-1.981.341c0,.017,0,.036,0,.052,0,0,7.835.449,9.515,4.088s-5.535,8.689-7.044,8.808c3.822.021,7.375,2.354,8.834,2.84,2.3.768,4.5-.329,6.144-.549s1.207-.987,2.853-1.756,4.608-2.633,4.608-2.633C-23.993,1.733-23.774-4.3-28-4.521" transform="translate(49.893 8.057)"/>
      </g>
      <g id="Group_1287" data-name="Group 1287" transform="translate(229.377 49.222)">
        <path id="Path_1268" data-name="Path 1268" class="cls-25" d="M-8.709,0-15.52,4.007a.937.937,0,0,0,.135.181,3.707,3.707,0,0,1,3.712,1.019c1.428,1.706,1.429,8.289,1.429,8.289a22.659,22.659,0,0,0-.282,3.124C-8.584,14.3-5.181,8.614-8.709,0" transform="translate(15.52)"/>
      </g>
      <g id="Group_1288" data-name="Group 1288" transform="translate(232.675 60.268)">
        <path id="Path_1269" data-name="Path 1269" class="cls-3" d="M-.7-8.641s4.154-2,3.668-5.186-3.721-.549-3.721-.549S-1.911-9.269-.7-8.641" transform="translate(1.254 15.399)"/>
      </g>
      <g id="Group_1289" data-name="Group 1289" transform="translate(295.133 122.239)">
        <path id="Path_1270" data-name="Path 1270" class="cls-26" d="M0,0S.108.636.219,1.74"/>
      </g>
      <g id="Group_1290" data-name="Group 1290" transform="translate(249.068 127.532)">
        <path id="Path_1271" data-name="Path 1271" class="cls-27" d="M-59.462,0c.159,5.821-.569,15.276-5.954,22.267C-76.4,36.522-79.78,36.053-87.3,42.618-94.088,48.543-104.229,55-105.97,65.436" transform="translate(105.97)"/>
      </g>
      <g id="Group_1291" data-name="Group 1291" transform="translate(248.809 194.741)">
        <path id="Path_1272" data-name="Path 1272" class="cls-26" d="M-.062,0Q-.123.86-.107,1.755" transform="translate(0.111)"/>
      </g>
      <g id="Group_1292" data-name="Group 1292" transform="translate(131.034 225.06)">
        <path id="Path_1273" data-name="Path 1273" class="cls-28" d="M-3.067-1.185c-.321.07-2.5,1.827-2.4,3.44C-5.328,4.447,2.975,12.66,9.2,12.879S8.759,7.248,7.659,5.8,1.2-2.111,1.2-2.111Z" transform="translate(5.466 2.111)"/>
      </g>
      <g id="Group_1293" data-name="Group 1293" transform="translate(132.742 219.411)">
        <path id="Path_1274" data-name="Path 1274" class="cls-5" d="M-6.6-7.722l.971-2.745-6.137-3.294.11,7.831a3.414,3.414,0,0,0,.007.452S-8.864-2.6-7.586-3.106c1.17-.46,3.394-1.516.981-4.616" transform="translate(11.771 13.761)"/>
      </g>
      <g id="Group_1294" data-name="Group 1294" transform="translate(139.143 229.464)">
        <path id="Path_1275" data-name="Path 1275" class="cls-15" d="M-1.414-.2c.349-.426.476.138.476.138S-1.551,1.911-1.689,2.8s-.727.715-.825.553A32.8,32.8,0,0,1-1.414-.2" transform="translate(2.52 0.363)"/>
      </g>
      <g id="Group_1295" data-name="Group 1295" transform="translate(137.709 230.827)">
        <path id="Path_1276" data-name="Path 1276" class="cls-15" d="M-4.651,0c.545.08.127.479.127.479s-2.01.494-2.843.834-.987-.254-.9-.422A32.855,32.855,0,0,1-4.651,0" transform="translate(8.288)"/>
      </g>
      <g id="Group_1296" data-name="Group 1296" transform="translate(141.518 232.131)">
        <path id="Path_1277" data-name="Path 1277" class="cls-15" d="M-1.212-.175c.3-.366.409.118.409.118S-1.33,1.64-1.448,2.4s-.624.614-.707.474A28.1,28.1,0,0,1-1.212-.175" transform="translate(2.16 0.311)"/>
      </g>
      <g id="Group_1297" data-name="Group 1297" transform="translate(140.288 233.3)">
        <path id="Path_1278" data-name="Path 1278" class="cls-15" d="M-3.989,0c.467.068.108.411.108.411S-5.6.835-6.319,1.126-7.166.908-7.09.765A28.143,28.143,0,0,1-3.989,0" transform="translate(7.109)"/>
      </g>
      <g id="Group_1298" data-name="Group 1298" transform="translate(134.655 221.711)">
        <path id="Path_1279" data-name="Path 1279" class="cls-3" d="M-.991-2.512S-2.6.766-1.177,3.447a2.139,2.139,0,0,0,1.684.431c1.17-.46,3.394-1.515.981-4.616l.971-2.745-1.853-1a13.532,13.532,0,0,0-1.6,1.965" transform="translate(1.766 4.477)"/>
      </g>
      <g id="Group_1299" data-name="Group 1299" transform="translate(97.74 253.163)">
        <path id="Path_1280" data-name="Path 1280" class="cls-28" d="M-3.944,0C-4.273,0-6.77,1.255-7.016,2.853c-.334,2.17,6.035,11.959,12.069,13.5s.768-5.6,0-7.241S.418,0,.418,0Z" transform="translate(7.029)"/>
      </g>
      <g id="Group_1300" data-name="Group 1300" transform="translate(99.9 246.591)">
        <path id="Path_1281" data-name="Path 1281" class="cls-5" d="M-8.877-5.783l-5.3-4.524L-15.73-2.63a3.441,3.441,0,0,0-.09.442s2.115,3.4,3.472,3.182c1.24-.2,3.639-.76,1.939-4.3Z" transform="translate(15.82 10.307)"/>
      </g>
      <g id="Group_1301" data-name="Group 1301" transform="translate(104.743 257.737)">
        <path id="Path_1282" data-name="Path 1282" class="cls-15" d="M-2.372-.136c.434-.339.434.239.434.239S-2.97,1.9-3.3,2.735s-.866.538-.926.359A32.892,32.892,0,0,1-2.372-.136" transform="translate(4.228 0.243)"/>
      </g>
      <g id="Group_1302" data-name="Group 1302" transform="translate(103.627 259.242)">
        <path id="Path_1283" data-name="Path 1283" class="cls-15" d="M-4.829-.02c.514.2.019.5.019.5s-2.069.04-2.957.189S-8.675.2-8.552.056A32.784,32.784,0,0,1-4.829-.02" transform="translate(8.606 0.036)"/>
      </g>
      <g id="Group_1303" data-name="Group 1303" transform="translate(106.59 260.819)">
        <path id="Path_1284" data-name="Path 1284" class="cls-15" d="M-2.035-.117c.373-.291.373.205.373.205s-.886,1.539-1.168,2.257-.743.461-.795.308a28.148,28.148,0,0,1,1.59-2.77" transform="translate(3.627 0.208)"/>
      </g>
      <g id="Group_1304" data-name="Group 1304" transform="translate(105.633 262.11)">
        <path id="Path_1285" data-name="Path 1285" class="cls-15" d="M-4.142-.017c.441.169.016.425.016.425S-5.9.442-6.662.57s-.779-.4-.673-.522A28.173,28.173,0,0,1-4.142-.017" transform="translate(7.382 0.031)"/>
      </g>
      <g id="Group_1305" data-name="Group 1305" transform="translate(101.662 249.178)">
        <path id="Path_1286" data-name="Path 1286" class="cls-3" d="M-3.725,0C-3.866.008-4,.014-4.148.025c0,0-2.43,4.821-2.49,7.763.575.573,1.2,1.009,1.71.926,1.24-.2,3.639-.76,1.939-4.3l1.532-2.476Z" transform="translate(6.638)"/>
      </g>
      <g id="Group_1306" data-name="Group 1306" transform="translate(10.46 51.76)">
        <path id="Path_1287" data-name="Path 1287" class="cls-11" d="M-47.741-11.063s-2.414-11.191-16.019-8.119S-81.535,1.961-79.56,11.029s-1.756,14.554-5.486,17.407c0,0-.439,1.79,1.756,1.115A18.474,18.474,0,0,0-69.685,16.927a8.887,8.887,0,0,1,.439,5.275s-.439,1.666,1.756,0,7.241-9.866,4.828-20.359,7.241-13.565,9.875-11.151c0,0,1.737.385,5.047-1.756" transform="translate(85.082 19.716)"/>
      </g>
      <g id="Group_1307" data-name="Group 1307" transform="translate(10.46 51.766)">
        <path id="Path_1288" data-name="Path 1288" class="cls-6" d="M-32.88,0c.176.064,3.937,1.472,3.289,4.259-.663,2.853-11.2,5.705-12.293,10.972s1.72,7.733,1.957,12.206-.75,4.033-.75,4.691-.987-2.017-2.743-3.258S-47.7,41.451-51.539,44.2c-2.173,1.553-3.4,2.191-5.086,2.2a15.639,15.639,0,0,1-1.936,1.756s-.439,1.79,1.756,1.115A18.474,18.474,0,0,0-43.2,36.638a8.887,8.887,0,0,1,.439,5.275s-.439,1.666,1.756,0,7.241-9.866,4.828-20.359S-28.937,7.989-26.3,10.4c0,0,1.737.385,5.047-1.756A11.5,11.5,0,0,0-32.88,0" transform="translate(58.597 0)"/>
      </g>
      <g id="Group_1308" data-name="Group 1308" transform="translate(0 122.239)">
        <path id="Path_1289" data-name="Path 1289" class="cls-9" d="M-116.946-105.169s.219,15.361-21.724,13.605-17.555,6.583-32.477-4.828-22.822,5.705-34.671-24.8,20.188-64.654,29.4-66.19,53.324,34.371,59.248,39.857,7.9,28.308,5.486,34.671-5.267,7.68-5.267,7.68" transform="translate(208.415 187.426)"/>
      </g>
      <g id="Group_1309" data-name="Group 1309" transform="translate(10.606 123.598)">
        <path id="Path_1290" data-name="Path 1290" class="cls-8" d="M-103.105-49.283c-5.112-4.733-38.644-32.109-53.669-38.547a154.367,154.367,0,0,0-15.527,10.5s-16.385,25.09-9.948,36.7c2.521,4.548,2.441,4.99,5.08,7.785,1.568,1.661,7.051,4.053,8.683,5.585,2.637,2.474,4.121,6.927,6.988,10.31,6.435,7.591,41.128,13.15,51.06,21.551a13.474,13.474,0,0,0,7.554-11.541s2.853-1.317,5.267-7.68.439-29.185-5.486-34.671" transform="translate(183.748 87.83)"/>
      </g>
      <g id="Group_1310" data-name="Group 1310" transform="translate(66.087 150.807)">
        <path id="Path_1291" data-name="Path 1291" class="cls-29" d="M-20.2,0S3.353,3.8,15.641,14.336s22.09,27.5,23.114,39.938.147,13.605,1.317,16.531c.976,2.439-10.643,5.245-12.179,1.186-.524-1.385-2.046-7.567-2.524-9.875-.424-2.046-3.1-8.761-7.469-14.263A60.637,60.637,0,0,0-10.07,27.994C-20.749,24.629-36,9.948-36,9.948Z" transform="translate(36)"/>
      </g>
      <g id="Group_1311" data-name="Group 1311" transform="translate(78.397 170.807)">
        <path id="Path_1292" data-name="Path 1292" class="cls-30" d="M-39.064-13.527c-11.7-5.267-27.5-10.562-27.5-10.562H-67.5a4.664,4.664,0,0,0-2.121.257c4.436,3.271,9.386,6.384,13.62,7.718A60.643,60.643,0,0,1-28.027,3.745c4.372,5.5,7.045,12.217,7.469,14.263.182.88.516,2.322.888,3.846h0C-20.939,3.745-27.36-8.261-39.064-13.527" transform="translate(69.617 24.107)"/>
      </g>
      <g id="Group_1312" data-name="Group 1312" transform="translate(118.928 166.2)">
        <path id="Path_1293" data-name="Path 1293" class="cls-30" d="M-28.019-49.71c-.991-12.027-10.193-28.3-21.914-38.881.383.385,21.7,22.536,19.281,46.027-.726,7.048-1.609,9.546-5.31,12.481,3.886.686,9.977-1.3,9.259-3.1-1.17-2.926-.293-4.1-1.317-16.531" transform="translate(49.933 88.591)"/>
      </g>
      <g id="Group_1313" data-name="Group 1313" transform="translate(36.486 159.933)">
        <path id="Path_1294" data-name="Path 1294" class="cls-29" d="M-.063-14.891S-2.111,8.662,20.125,13.051,56.552,18.025,60.5,24.169s2.541,20.35.639,29.127,6.821,12.42,10.479,11.688,4.535-13.9,7.169-19.164S95.32,10.71,56.845-9.186c0,0-24.139-12.435-27.357-16.531S15.151-17.378-.063-14.891" transform="translate(0.113 26.538)"/>
      </g>
      <g id="Group_1314" data-name="Group 1314" transform="translate(97.745 194.486)">
        <path id="Path_1295" data-name="Path 1295" class="cls-30" d="M-20.953,0c.027.085,7.593,17.741,0,33.208C-28.076,47.716-26.468,55.1-37.341,49.9c1.361,5.426,7.542,7.654,10.474,7.067,3.658-.732,4.535-13.9,7.169-19.164,1.938-3.876,9.977-21.066-1.254-37.8" transform="translate(37.341)"/>
      </g>
      <g id="Group_1315" data-name="Group 1315" transform="translate(37.317 178.474)">
        <path id="Path_1296" data-name="Path 1296" class="cls-30" d="M-28.18-18.512c-8.924-3.511-8.715-14.466-8.715-14.466-6.163-.126-10.487.631-13.326,2.017,1.619,7.16,6.283,16.426,19.408,19.017C-10.72-7.979,2.8-7.118,8.135-2.456,4.368-9.075-19.707-15.179-28.18-18.512" transform="translate(50.221 32.992)"/>
      </g>
      <g id="Group_1316" data-name="Group 1316" transform="translate(13.553 95.204)">
        <path id="Path_1297" data-name="Path 1297" class="cls-31" d="M-40.233-7.87s12.581,4.53,16.238-4.974a18.31,18.31,0,0,1,6.437-1.17c3.072.146,8.634,5.166,10.688,7.128C-3.56-3.722,3.365,4.142,3.365,4.142S-5.562,11-6,15.683s9.8,26.8,10.24,27.528-8.876,4.245-16.586,9.277c-22.842,14.907-27.3,23.7-34.031,23.7s-6-42.952-6-42.952-11.85-6.876-19.311-4.535c0,0-.348-.027,2.341-7.022,4.413-11.484,3.8-12.727,9.655-18.286S-40.233-7.87-40.233-7.87" transform="translate(71.7 14.026)"/>
      </g>
      <g id="Group_1317" data-name="Group 1317" transform="translate(32.855 142.468)">
        <path id="Path_1298" data-name="Path 1298" class="cls-16" d="M-8.452-41.168c-5.905-7.461-6.588-32.2-6.588-32.2s-.731,42.952,6,42.952c3.622,0,6.589-2.55,12.118-7.229-4.3.766-9.5-.958-11.529-3.523" transform="translate(15.063 73.368)"/>
      </g>
      <g id="Group_1318" data-name="Group 1318" transform="translate(76.545 112.758)">
        <path id="Path_1299" data-name="Path 1299" class="cls-5" d="M-11.5-.016A35.953,35.953,0,0,0,12.78,17.246C21.2,18.937,30.92,19.587,29.6,21.489S-6.97,32.022-16.771,18.271-14.284-.309-11.5-.016" transform="translate(20.503 0.028)"/>
      </g>
      <g id="Group_1319" data-name="Group 1319" transform="translate(76.546 117.707)">
        <path id="Path_1300" data-name="Path 1300" class="cls-3" d="M-42.6-26.273a5.49,5.49,0,0,1,1.718-.94c5.632-1.874,0-4.489,0-4.489C-60.7-27.093-71.947-46.822-71.947-46.822a8.109,8.109,0,0,0-3.525,1.173c-.993,2.869-.51,6.854,3.284,12.177,5.423,7.61,18.64,8.364,29.588,7.2" transform="translate(75.919 46.822)"/>
      </g>
      <g id="Group_1320" data-name="Group 1320" transform="translate(88.924 117.744)">
        <path id="Path_1301" data-name="Path 1301" class="cls-32" d="M0-32.827H0L20.611-57.478,52.942-58.5,33.631-36.7Z" transform="translate(0 58.502)"/>
      </g>
      <g id="Group_1321" data-name="Group 1321" transform="translate(88.47 139.542)">
        <path id="Path_1302" data-name="Path 1302" class="cls-33" d="M-.934-7.481l34.232-4.1s1.024-1.756-.878-1.756S-1.211-9.456-1.211-9.456s-1.187.8.276,1.974" transform="translate(1.665 13.333)"/>
      </g>
      <g id="Group_1322" data-name="Group 1322" transform="translate(104.152 121.125)">
        <path id="Path_1303" data-name="Path 1303" class="cls-34" d="M-19.134-19.53-34.1-17.669l13.722-16.7L-7.943-34.8Z" transform="translate(34.1 34.805)"/>
      </g>
      <g id="Group_1323" data-name="Group 1323" transform="translate(100.685 126.83)">
        <path id="Path_1304" data-name="Path 1304" class="cls-34" d="M-7.762-7.108l-6.071.439,4.974-6,5.925.073Z" transform="translate(13.833 12.667)"/>
      </g>
      <g id="Group_1324" data-name="Group 1324" transform="translate(124.798 94.117)">
        <path id="Path_1305" data-name="Path 1305" class="cls-35" d="M-25.088,0s1.171,0,.585.732S-43.662,19.343-43.662,19.343s-1.9-1.463-.585-2.194S-25.088,0-25.088,0" transform="translate(44.711)"/>
      </g>
      <g id="Group_1325" data-name="Group 1325" transform="translate(124.071 94.849)">
        <path id="Path_1306" data-name="Path 1306" class="cls-36" d="M-24.225-30.769-43.173-9.118l1.831-28.731L-22.11-54.835Z" transform="translate(43.173 54.835)"/>
      </g>
      <g id="Group_1326" data-name="Group 1326" transform="translate(123.433 111.481)">
        <path id="Path_1307" data-name="Path 1307" class="cls-35" d="M0-38.122,1.4-67.93s.87-.093.943.346-1.5,28.5-1.5,28.5Z" transform="translate(0 67.939)"/>
      </g>
      <g id="Group_1327" data-name="Group 1327" transform="translate(133.454 109.944)">
        <path id="Path_1308" data-name="Path 1308" class="cls-35" d="M-3-.047C-1.37-.348-.336,1.256-.979,3s-1.712,2.818-3.558,2.04S-4.7.269-3-.047" transform="translate(5.342 0.084)"/>
      </g>
      <g id="Group_1328" data-name="Group 1328" transform="translate(53.218 95.204)">
        <path id="Path_1309" data-name="Path 1309" class="cls-16" d="M-46.38-73.179c-.439-.731-10.679-22.847-10.24-27.528s9.365-11.541,9.365-11.541-6.925-7.864-10.235-11.029c-2.054-1.963-7.615-6.982-10.688-7.128a18.31,18.31,0,0,0-6.437,1.17,9.1,9.1,0,0,1-8.042,5.959,31.677,31.677,0,0,0,3.945,3.545s.18,2.832,4.113,7.571,5.4,4.885,4.811,11.468,0,19.018,2.341,23.553,6.167,12.174,6.167,12.174h0c7.315-4.461,15.307-7.537,14.9-8.215" transform="translate(82.656 130.416)"/>
      </g>
      <g id="Group_1329" data-name="Group 1329" transform="translate(70.907 140.3)">
        <path id="Path_1310" data-name="Path 1310" class="cls-3" d="M-.29-4.662s1.243,1.578,2.633,1.3,3.865-1.372,4.47-1.483,1.748.017,1.309.758.439.594.951.3a1.977,1.977,0,0,0,.439-2.356A7,7,0,0,0,6.147-8.3C4.9-8.539-1.826-5.028-.29-4.662" transform="translate(0.516 8.308)"/>
      </g>
      <g id="Group_1330" data-name="Group 1330" transform="translate(72.908 136.4)">
        <path id="Path_1311" data-name="Path 1311" class="cls-3" d="M0,0A30.319,30.319,0,0,1,6.924,2.3c2.42,1.373,3.188,2.549,3.188,3.771S9.4,6.39,9.4,6.39A3.309,3.309,0,0,0,6.629,4.964C4.171,5.167,0,0,0,0"/>
      </g>
      <g id="Group_1331" data-name="Group 1331" transform="translate(71.94 136.183)">
        <path id="Path_1312" data-name="Path 1312" class="cls-5" d="M0,0S7.093.594,9.8,1.984s2.98,1.948,2.368,2.144-4.276-.77-4.276-.77S.733.094,0,0"/>
      </g>
      <g id="Group_1332" data-name="Group 1332" transform="translate(74.594 135.296)">
        <path id="Path_1313" data-name="Path 1313" class="cls-5" d="M0,0S4.75.4,7.274.887s2.743.7,3.84.814,1.042.658.274.878-5.689,0-6.932,0S1.262.5,0,0"/>
      </g>
      <g id="Group_1333" data-name="Group 1333" transform="translate(13.286 135.205)">
        <path id="Path_1314" data-name="Path 1314" class="cls-5" d="M-3.108-2.946A20.332,20.332,0,0,0-4.672,2.891c-.146,2.633-7.9,30.282,25.894,17.847,11.521-4.24,18.485-10.577,23.7-13.432C52.589,3.108,55.83,3.33,58.965,3.33c5.267,0,2.286-8.074-3.657-8.543-5.214-.411-12.654,2.78-16.9,4.755C34.88,1.186,15.663,9.113,10.835,5.749c0,0-.458-.492,1.421-4.689,0,0-8.735-4.738-15.364-4.006" transform="translate(5.539 5.249)"/>
      </g>
      <g id="Group_1334" data-name="Group 1334" transform="translate(16.197 139.62)">
        <path id="Path_1315" data-name="Path 1315" class="cls-3" d="M-71.689-1.627C-76.717-.464-95.674,7.531-107.47,14.666a30.429,30.429,0,0,1-20.29,3.747c3.333,3.765,10.2,5.282,23.85.26C-92.39,14.434-85.425,8.1-80.211,5.242c7.669-4.2,10.909-4.026,14.044-3.977,2.728.043,3.368-2.124,2.346-4.164-1.386-.038-7.622,1.233-7.868,1.272" transform="translate(127.76 2.9)"/>
      </g>
      <g id="Group_1335" data-name="Group 1335" transform="translate(25.868 139.232)">
        <path id="Path_1316" data-name="Path 1316" class="cls-3" d="M-4.786-8.524h0c.008-.467.23-1.619,1.468-4.384A42.392,42.392,0,0,0-8.53-15.191c.352,2.423,1.325,5.122,3.744,6.667" transform="translate(8.53 15.191)"/>
      </g>
      <g id="Group_1336" data-name="Group 1336" transform="translate(40.387 82.506)">
        <path id="Path_1317" data-name="Path 1317" class="cls-5" d="M-5.924-24.106s2.583-7.735-4.634-18.854l13.85,2.34S-1.719-29.5,4.609-27.453c1.5.488,5.565-1.282,5.565-1.282s1.369,6.584-3.956,9.16c-6.931,3.354-12.435-.382-12.142-4.53" transform="translate(10.558 42.96)"/>
      </g>
      <g id="Group_1337" data-name="Group 1337" transform="translate(49.523 84.822)">
        <path id="Path_1318" data-name="Path 1318" class="cls-3" d="M-13.946-22.783a10.388,10.388,0,0,0,.688-5.912s-4.06,1.77-5.565,1.282c-6.327-2.051-1.317-13.167-1.317-13.167l-.134-.023c-5.226,3.139-5.47,7.325-3.271,8.4,0,0-.618,9.422,6.326,9.207,1.229-.038,2.3.194,3.272.215" transform="translate(24.854 40.602)"/>
      </g>
      <g id="Group_1338" data-name="Group 1338" transform="translate(38.758 58.237)">
        <path id="Path_1319" data-name="Path 1319" class="cls-5" d="M-10.412-47.554s8.945,2.121,13.48-2.122C5.8-52.237,15.73-79.089,1.6-83.611c-12.289-3.935-18.531,3.234-19.457,7.915-.384,1.942-3.511,15.217,7.44,28.142" transform="translate(18.556 84.749)"/>
      </g>
      <g id="Group_1339" data-name="Group 1339" transform="translate(38.758 58.237)">
        <path id="Path_1320" data-name="Path 1320" class="cls-5" d="M-10.412-47.554s8.945,2.121,13.48-2.122C5.8-52.237,15.73-79.089,1.6-83.611c-12.289-3.935-18.531,3.234-19.457,7.915-.384,1.942-3.511,15.217,7.44,28.142" transform="translate(18.556 84.749)"/>
      </g>
      <g id="Group_1340" data-name="Group 1340" transform="translate(54.673 63.446)">
        <path id="Path_1321" data-name="Path 1321" class="cls-3" d="M-4.773-30.912c-.512.146-.372,6.938-3.733,8.151A10.421,10.421,0,0,0-2.8-25.228c2.266-2.12,9.464-20.9,3.846-29.862C-2.13-53.872-3.767-51.464-2.989-48.4c0,0,1.38,8.462-.619,11.018-1,1.276,2.6,4.135,1.705,5.158a5.192,5.192,0,0,1-2.87,1.315" transform="translate(8.506 55.09)"/>
      </g>
      <g id="Group_1341" data-name="Group 1341" transform="translate(54.16 88.538)">
        <path id="Path_1322" data-name="Path 1322" class="cls-12" d="M-7.9-.074a38.6,38.6,0,0,1-6.177-.058,3.376,3.376,0,0,0,3.831,3.019C-8.284,2.663-7.6.394-7.9-.074" transform="translate(14.074 0.132)"/>
      </g>
      <g id="Group_1342" data-name="Group 1342" transform="translate(54.673 89.675)">
        <path id="Path_1323" data-name="Path 1323" class="cls-13" d="M-2.8-.024A6.659,6.659,0,0,1-.012.957a2.564,2.564,0,0,1-1.654.883A3.115,3.115,0,0,1-4.984.291,5.015,5.015,0,0,1-2.8-.024" transform="translate(4.984 0.043)"/>
      </g>
      <g id="Group_1343" data-name="Group 1343" transform="translate(60.468 79.869)">
        <path id="Path_1324" data-name="Path 1324" class="cls-12" d="M-4.727-1.264c.059.634-.524-.261-1.543-.166S-8.362-.288-8.421-.922-7.7-2.146-6.68-2.24s1.895.342,1.953.976" transform="translate(8.424 2.253)"/>
      </g>
      <g id="Group_1344" data-name="Group 1344" transform="translate(51.569 79.569)">
        <path id="Path_1325" data-name="Path 1325" class="cls-12" d="M-5.651-1.482c0,.636-1.016-.305-2.237-.309s-2.184.932-2.182.3.993-1.149,2.212-1.146,2.209.523,2.207,1.159" transform="translate(10.07 2.641)"/>
      </g>
      <g id="Group_1345" data-name="Group 1345" transform="translate(38.76 58.237)">
        <path id="Path_1326" data-name="Path 1326" class="cls-11" d="M-25.773-1.454C-38.062-5.389-44.3,1.78-45.23,6.461a31.943,31.943,0,0,0,2.76,21.115c-.036-.188-2.467-11.307-.025-10.709.667.163,2.166,2.91,2.751,4.81s2.853-1.445,2.853-4.81-.438-9.382,2.048-9.821S-26.895,9.59-22.7,9.241s4.13-.923,4.13-.923h0c-.6-4.536-2.654-8.314-7.206-9.772" transform="translate(45.931 2.591)"/>
      </g>
      <g id="Group_1346" data-name="Group 1346" transform="translate(64.77 65.484)">
        <path id="Path_1327" data-name="Path 1327" class="cls-6" d="M-1.732-4.682s4.424-2.441,6.4.631S3.13,3.272,3.13,3.272s-.219.724.878.577S9.2-3.685,7.154-6.391s-4.827-2.633-10.24.439c0,0-.071,1.006,1.354,1.271" transform="translate(3.087 8.343)"/>
      </g>
      <g id="Group_1347" data-name="Group 1347" transform="translate(56.578 68.128)">
        <path id="Path_1328" data-name="Path 1328" class="cls-6" d="M0-1.509S2.706.2,1.243,2.5c0,0,.147.844,1.024.332S4.607-.6,2.779-2.139A1.665,1.665,0,0,0,0-1.509" transform="translate(0 2.689)"/>
      </g>
      <g id="Group_1348" data-name="Group 1348" transform="translate(63.968 68.364)">
        <path id="Path_1329" data-name="Path 1329" class="cls-6" d="M0-1.207S4.606.5,3.143,2.8c0,0,.147.844,1.024.332S5.557-.594,2.779-1.837C.6-2.813,0-1.207,0-1.207" transform="translate(0 2.152)"/>
      </g>
      <g id="Group_1349" data-name="Group 1349" transform="translate(38.137 76.743)">
        <path id="Path_1330" data-name="Path 1330" class="cls-5" d="M-6.84-9.967s-5.959,1.146-5.3-4.692c.684-6.049,5.032-1.536,5.2-.73a48.471,48.471,0,0,1,.1,5.422" transform="translate(12.189 17.763)"/>
      </g>
      <g id="Group_1350" data-name="Group 1350" transform="translate(39.466 79.202)">
        <path id="Path_1331" data-name="Path 1331" class="cls-3" d="M-2.624-4.245a.77.77,0,0,1-.771-.963c.193-.931,1.06-.706.771-1.284S-4.133-8.1-4.487-7.231s-.281,3.181.8,3.342,1.02-.173,1.063-.356" transform="translate(4.676 7.565)"/>
      </g>
      <g id="Group_1351" data-name="Group 1351" transform="translate(72.908 103.789)">
        <path id="Path_1332" data-name="Path 1332" class="cls-37" d="M-8.113-27.008S-10.125-44.4-14.459-48.132c0,0,5.831,3.463,8.25,16.988Z" transform="translate(14.459 48.132)"/>
      </g>
      <g id="Group_1352" data-name="Group 1352" transform="translate(25.867 122.112)">
        <path id="Path_1333" data-name="Path 1333" class="cls-16" d="M-8.964-26.025s5.121-13.516,4.828-20.356c0,0-4.221,13.478-11.839,17.119,0,0,5.109,1.758,7.011,3.236" transform="translate(15.975 46.381)"/>
      </g>
      <g id="Group_1353" data-name="Group 1353" transform="translate(40.902 102.343)">
        <path id="Path_1334" data-name="Path 1334" class="cls-16" d="M-2.378,0S-.351,5.07,4.153,5.774,14.16,4.768,15.086,3.763s1.8,2.3,0,2.758-8.753,2.5-12.31,1.005C-4.252,4.567-4.238.882-4.238.882Z" transform="translate(4.238)"/>
      </g>
      <g id="Group_1354" data-name="Group 1354" transform="translate(0.765 166.2)">
        <path id="Path_1335" data-name="Path 1335" class="cls-38" d="M0,0S2.585,19.732,12.522,23.682,23.3,33.633,28.365,36.557s19.177,3.637,23.312,6.572,14.053,9.033,14.053,9.033"/>
      </g>
      <g id="Group_1355" data-name="Group 1355" transform="translate(53.018 58.41)">
        <path id="Path_1336" data-name="Path 1336" class="cls-6" d="M-16.758-13.726c-.6-4.535-2.654-8.314-7.206-9.772a24.328,24.328,0,0,0-4.214-.964c1.149,3.455,1.68,7.782-1.687,9.876,2.69.721,6.124,2.021,8.977,1.783C-16.69-13.153-16.758-13.726-16.758-13.726Z" transform="translate(29.865 24.462)"/>
      </g>
      <g id="Group_1356" data-name="Group 1356" transform="translate(40.357 59.32)">
        <path id="Path_1337" data-name="Path 1337" class="cls-14" d="M-16.187-.135s1.339,1.1.2,1.756S-24.925,1.5-28.376,8.8c0,0-.612.5-.441-.929s4.29-9.1,12.63-8.009" transform="translate(28.847 0.241)"/>
      </g>
      <g id="Group_1357" data-name="Group 1357" transform="translate(16.985 52.623)">
        <path id="Path_1338" data-name="Path 1338" class="cls-14" d="M-23.828,0s1.756.549,1.317,1.1-7.461.951-11.411,4.516a21.248,21.248,0,0,0-5.267,7.247,27.942,27.942,0,0,0-2.676,8.334c-.658,4.041-1.027-1.507.262-5.369C-40.2,11.63-36.856,3.7-28.779.974A43.98,43.98,0,0,1-23.828,0" transform="translate(42.464)"/>
      </g>
    </g>
  </g>
</svg>
