<svg xmlns="http://www.w3.org/2000/svg" xmlns:xlink="http://www.w3.org/1999/xlink" viewBox="839.773 1425 255.227 238.252">
  <defs>
    <style>
      .cls-1 {
        fill: none;
      }

      .cls-2 {
        clip-path: url(#clip-path);
      }

      .cls-3 {
        fill: #b7733a;
      }

      .cls-4 {
        fill: #ffc5ba;
      }

      .cls-5 {
        fill: #fff;
      }

      .cls-6 {
        fill: #f59392;
      }

      .cls-7 {
        fill: #aa6c00;
      }

      .cls-8 {
        fill: #ff6e5f;
      }

      .cls-9 {
        fill: #ca4e43;
      }

      .cls-10 {
        fill: #eeab00;
      }

      .cls-11 {
        fill: #d28d00;
      }

      .cls-12 {
        fill: #9a2430;
      }

      .cls-13 {
        fill: #fc4e71;
      }

      .cls-14 {
        fill: #9a2935;
      }

      .cls-15 {
        fill: #85141f;
      }

      .cls-16 {
        fill: #b85344;
      }

      .cls-17 {
        fill: #f64f6f;
      }

      .cls-18 {
        fill: #d49657;
      }

      .cls-19 {
        fill: #71a2e9;
      }

      .cls-20 {
        fill: #c0eff8;
      }

      .cls-21 {
        fill: #75a0e8;
      }

      .cls-22 {
        fill: #8e81fb;
      }

      .cls-23 {
        fill: #d7befc;
      }

      .cls-24 {
        fill: #9371e3;
      }

      .cls-25 {
        fill: #ffd583;
      }

      .cls-26 {
        fill: #300966;
      }

      .cls-27 {
        fill: #1f0343;
      }

      .cls-28 {
        fill: #836ba2;
      }
    </style>
    <clipPath id="clip-path">
      <path id="Path_1173" data-name="Path 1173" class="cls-1" d="M0-510.3H255.227v238.252H0Z" transform="translate(0 510.297)"/>
    </clipPath>
  </defs>
  <g id="Group_1192" data-name="Group 1192" transform="translate(839.773 1425)">
    <g id="Group_1191" data-name="Group 1191" class="cls-2">
      <g id="Group_1083" data-name="Group 1083" transform="translate(242.975 146.737)">
        <path id="Path_1065" data-name="Path 1065" class="cls-3" d="M-.871,0A16.385,16.385,0,0,0,2.152.633c1.061.1,2.485-.949,4.165,2.243a41.456,41.456,0,0,1,3.093,7.35c2.461,7.063.627,10.254-.786,10.622-.652.17-4.476-1.116-7.146-7.8A30.186,30.186,0,0,0-1.633,7.563Z" transform="translate(1.633)"/>
      </g>
      <g id="Group_1084" data-name="Group 1084" transform="translate(236.059 144.492)">
        <path id="Path_1066" data-name="Path 1066" class="cls-4" d="M0-5.727,6.916-.935s1.431,2.022,2.47,3.469,3.56-.946,1.906-6.066-7.485-7.211-7.485-7.211Z" transform="translate(0 10.743)"/>
      </g>
      <g id="Group_1085" data-name="Group 1085" transform="translate(246.239 158.186)">
        <path id="Path_1067" data-name="Path 1067" class="cls-5" d="M-.1-2.612s.149-.106.385-.273C.882-3.3,2.02-4.1,2.722-4.555c.983-.64,1.281-.273,1.2.174S.4-1.785.4-1.785-.443-2.367-.1-2.612" transform="translate(0.18 4.899)"/>
      </g>
      <g id="Group_1086" data-name="Group 1086" transform="translate(247.017 159.996)">
        <path id="Path_1068" data-name="Path 1068" class="cls-5" d="M-.1-2.612.29-2.885C.882-3.3,2.02-4.1,2.723-4.555c.983-.64,1.281-.273,1.2.174S.4-1.785.4-1.785-.442-2.367-.1-2.612" transform="translate(0.18 4.899)"/>
      </g>
      <g id="Group_1087" data-name="Group 1087" transform="translate(239.11 144.492)">
        <path id="Path_1069" data-name="Path 1069" class="cls-6" d="M-9.411-8.233c-1.654-5.12-7.485-7.211-7.485-7.211l-.757,1A21.726,21.726,0,0,0-15.536-11a12.05,12.05,0,0,1,4.28,3.947A12.823,12.823,0,0,1-9.909-2.033c.891-.731,1.566-2.892.5-6.2" transform="translate(17.653 15.444)"/>
      </g>
      <g id="Group_1088" data-name="Group 1088" transform="translate(159.213 163.495)">
        <path id="Path_1070" data-name="Path 1070" class="cls-3" d="M-13.15,0a16.415,16.415,0,0,0,1.323,2.791c.565.9,2.258,1.405.732,4.673a41.351,41.351,0,0,1-3.984,6.908c-4.138,6.231-7.788,6.7-8.935,5.8-.529-.417-1.817-4.24,1.9-10.411a30.184,30.184,0,0,0,2.484-5.792Z" transform="translate(24.666)"/>
      </g>
      <g id="Group_1089" data-name="Group 1089" transform="translate(162.921 159.055)">
        <path id="Path_1071" data-name="Path 1071" class="cls-4" d="M-1.094,0l.365,8.406S-1.474,10.769-2,12.472s2.905,2.263,5.984-2.15S5.2,0,5.2,0Z" transform="translate(2.052 0)"/>
      </g>
      <g id="Group_1090" data-name="Group 1090" transform="translate(160.983 173.713)">
        <path id="Path_1072" data-name="Path 1072" class="cls-5" d="M-.353-.007.107.1C.812.268,2.162.592,2.97.814c1.131.311,1.053.778.664,1.011S-.646.909-.646.909-.766-.1-.353-.007" transform="translate(0.662 0.014)"/>
      </g>
      <g id="Group_1091" data-name="Group 1091" transform="translate(160.144 175.495)">
        <path id="Path_1073" data-name="Path 1073" class="cls-5" d="M-.353-.007.107.1C.812.268,2.162.592,2.97.814c1.131.311,1.053.778.664,1.011S-.646.909-.646.909-.766-.1-.353-.007" transform="translate(0.662 0.014)"/>
      </g>
      <g id="Group_1092" data-name="Group 1092" transform="translate(164.355 160.136)">
        <path id="Path_1074" data-name="Path 1074" class="cls-6" d="M0-14.432c1.189-.091,2.947-1.024,4.6-3.4,2.274-3.26,1.853-7.333,1.477-9.24-.8.187-1.638.409-2.511.632,0,0,.86,7.552-3.57,12.007" transform="translate(0 27.072)"/>
      </g>
      <g id="Group_1093" data-name="Group 1093" transform="translate(117.752 52.588)">
        <path id="Path_1075" data-name="Path 1075" class="cls-7" d="M0,0S3.072,7.685,17.013,9.279C17.013,9.279,15.62,1.85,0,0"/>
      </g>
      <g id="Group_1094" data-name="Group 1094" transform="translate(90.23 49.688)">
        <path id="Path_1076" data-name="Path 1076" class="cls-4" d="M-52.24-8.609S-57.324.412-68.15,1.7s-18.043,3.866-20.62,9.021-7.99,11.341-9.021,9.537,2.028-12.776,6.667-17.673,7.9-6.9,12.535-8.707,9-2.039,15.961-10.029c0,0,10.388,3.673,10.388,7.54" transform="translate(97.992 16.149)"/>
      </g>
      <g id="Group_1095" data-name="Group 1095" transform="translate(96.005 73.464)">
        <path id="Path_1077" data-name="Path 1077" class="cls-6" d="M-6.147-.518s.074,4.1,0,5.907S-9.023,8.6-9.956,9.374s-2.683.192-.588-3.18-.987-6.712-.987-6.712,3.434-1.021,5.384,0" transform="translate(11.531 0.972)"/>
      </g>
      <g id="Group_1096" data-name="Group 1096" transform="translate(89.486 79.824)">
        <path id="Path_1078" data-name="Path 1078" class="cls-6" d="M-8.176,0s-5.254,9.2-6.712,9.432,1.11-7.335,1.11-7.335S-9.343.373-8.176,0" transform="translate(15.337)"/>
      </g>
      <g id="Group_1097" data-name="Group 1097" transform="translate(90.23 55.395)">
        <path id="Path_1079" data-name="Path 1079" class="cls-6" d="M-34.074-13.864c10.826-1.289,15.91-10.31,15.91-10.31a3.092,3.092,0,0,0-.719-1.832c-1.932.05-4.007.434-6.215.389,0,0,.1,5.071-7.864,6.84S-53.77-13.625-59.428-5.686a29.3,29.3,0,0,1-3.565,4.245c-.855,2.925-1.162,5.365-.722,6.136,1.031,1.8,6.444-4.382,9.021-9.537s9.794-7.733,20.62-9.021" transform="translate(63.915 26.006)"/>
      </g>
      <g id="Group_1098" data-name="Group 1098" transform="translate(130.901 22.374)">
        <path id="Path_1080" data-name="Path 1080" class="cls-4" d="M-4.123-18.759s-1.949-3.531-3.1-4.056,0-12.373,0-12.373,3.1,5.547,6.96,7.531-3.228,8.751-3.86,8.9" transform="translate(7.735 35.187)"/>
      </g>
      <g id="Group_1099" data-name="Group 1099" transform="translate(152.462 75.715)">
        <path id="Path_1081" data-name="Path 1081" class="cls-7" d="M-.364-15.462S-5.3-11.883,23.652-17.33s27.17-10.6,27.17-10.6S27.275-34.285-.371-16.081" transform="translate(0.682 29.004)"/>
      </g>
      <g id="Group_1100" data-name="Group 1100" transform="translate(154.648 76.81)">
        <path id="Path_1082" data-name="Path 1082" class="cls-8" d="M-8.787-.3s-5.8,9.342-6.959,20.105c-.2,1.812-2.062,22.167,1.031,30.931s7.99,24.487,6.444,30.673c-.966,3.866,4.37,4.279,7.293,2.97,1.754-.785.8-.378,2.244-5.29,5.566-18.9.837-24.744,4.445-32.477a97.4,97.4,0,0,0,5.608-15.981S11.319-3.91-8.787-.3" transform="translate(16.482 0.566)"/>
      </g>
      <g id="Group_1101" data-name="Group 1101" transform="translate(165.083 77.588)">
        <path id="Path_1083" data-name="Path 1083" class="cls-9" d="M-5.583-1.221S-8.474,6.233-7.819,18.155s1.158,16.469-1.428,24S-9.67,54.5-8.728,61.276a65.26,65.26,0,0,1-1.037,21.2,8.491,8.491,0,0,0,4.362-.6c1.754-.785.8-.379,2.244-5.29,5.566-18.9.837-24.745,4.445-32.477A97.4,97.4,0,0,0,6.894,28.127s0-25.6-12.832-30.417Z" transform="translate(10.473 2.29)"/>
      </g>
      <g id="Group_1102" data-name="Group 1102" transform="translate(160.144 71.927)">
        <path id="Path_1084" data-name="Path 1084" class="cls-8" d="M0-15.345S9.933-7.4,14.057-.954,30.12,28.09,35.791,35.565s31.364,9.362,39.354,14.517,6.56-.607,6.959-2.32c.227-.975-.684-3.882-2.267-5.29-7.165-6.375-24.3-15.253-27.891-20.743C47.565,15.028,45.5,6.006,43.441-.7S40.606-22.347,35.193-27.76,0-15.345,0-15.345" transform="translate(0 28.783)"/>
      </g>
      <g id="Group_1103" data-name="Group 1103" transform="translate(169.017 71.927)">
        <path id="Path_1085" data-name="Path 1085" class="cls-9" d="M-81.029-81.361c-7.165-6.375-24.3-15.253-27.891-20.743-4.382-6.7-6.444-15.723-8.506-22.425s-2.835-21.651-8.249-27.064c-3.487-3.487-17.083,2.67-26.319,7.494.232.489.47.981.72,1.478,0,0,10.583.225,12.712,4.325s2.6,5.467,4.774,11.786,5.127,14.374,11.205,21.584c5.472,6.491,5.759,3.672,12.606,9.922S-91.3-84.872-89.122-83.389c1.5,1.021,6.507,5.194,7.008,11.494,3.9,1.255,3.027-2.789,3.35-4.176.227-.975-.684-3.882-2.266-5.29" transform="translate(151.993 152.616)"/>
      </g>
      <g id="Group_1104" data-name="Group 1104" transform="translate(117.752 42.793)">
        <path id="Path_1086" data-name="Path 1086" class="cls-10" d="M-15.6,0s-3.087,2.178-5.664,3.724a97.818,97.818,0,0,0-8,6.071s12.114,2.577,17.013,9.279c0,0,3.35-4.9,6.444-4.9S2.7,17.269,2.7,17.269Z" transform="translate(29.26)"/>
      </g>
      <g id="Group_1105" data-name="Group 1105" transform="translate(126.662 42.793)">
        <path id="Path_1087" data-name="Path 1087" class="cls-11" d="M-16.609-16.187c3.093,0,8.506,3.093,8.506,3.093l-18.3-17.27s-2.411,1.7-4.751,3.164c5.13.8,8.889,5.463,10.449,8.475a6.782,6.782,0,0,1,.316,4.419,6.223,6.223,0,0,1,3.781-1.881" transform="translate(31.155 30.364)"/>
      </g>
      <g id="Group_1106" data-name="Group 1106" transform="translate(104.805 7.829)">
        <path id="Path_1088" data-name="Path 1088" class="cls-4" d="M-6.414-2.2S1.472-6.224,6.625-2.639s8.228,8.785,8.914,12.784c.79,4.6,1.793,9.133.225,12.719a18.874,18.874,0,0,1-2.375,4.185c-1.255,1.554-2.764,2.414-4.571,1.64-3.137-1.344-17.7-4.033-20.165-14.34S-9.021-.205-6.414-2.2" transform="translate(12.031 4.126)"/>
      </g>
      <g id="Group_1107" data-name="Group 1107" transform="translate(130.697 29.647)">
        <path id="Path_1089" data-name="Path 1089" class="cls-10" d="M-4.356-10.454S-9.213-6.425-7.967-4.471C-4.608.8,7.991,9.032,13.8,19.214c5.6,9.814-.292,17.583.108,20.785,0,0,26.388-14.59,47.983-11.924,8.6,1.062-2.077-7.217-4.4-8.764S44.852-16.125,1.823-19.609l-2.32.258a11.983,11.983,0,0,1-3.86,8.9" transform="translate(8.172 19.609)"/>
      </g>
      <g id="Group_1108" data-name="Group 1108" transform="translate(138.373 29.647)">
        <path id="Path_1090" data-name="Path 1090" class="cls-11" d="M-66.22-44.441c-2.32-1.546-12.646-35.437-55.675-38.921l-2.32.258s1.072-.725,5.663,3.226h0a74.79,74.79,0,0,1,8.426,8.5c1.846,2.165.717,5.468,4.919,8.892s7.358,5.347,8.676,8.926-2.056,11.283,1.679,15.331,2,7.139,2,7.139c9.137-3.16,20.636-5.873,31.027-4.59,8.6,1.061-2.077-7.217-4.4-8.764" transform="translate(124.215 83.362)"/>
      </g>
      <g id="Group_1109" data-name="Group 1109" transform="translate(164.813 29.18)">
        <path id="Path_1091" data-name="Path 1091" class="cls-7" d="M0-17.1s12.259-7.664,11.577-14.976c0,0-10.643,2.091-11.577,14.976" transform="translate(0 32.076)"/>
      </g>
      <g id="Group_1110" data-name="Group 1110" transform="translate(162.072 28.249)">
        <path id="Path_1092" data-name="Path 1092" class="cls-4" d="M-6.059,0S12.877,7.069,13.393,13.512,1.957,22.644,4.629,32.586c1.608,5.985-8.506-.773-7.733-7.217s5.67-9.794,2.32-10.825-10.488-3.338-10.488-3.338S-12.5,3.351-6.059,0" transform="translate(11.366)"/>
      </g>
      <g id="Group_1111" data-name="Group 1111" transform="translate(175.301 56.885)">
        <path id="Path_1093" data-name="Path 1093" class="cls-6" d="M-1.973-.089S.205-.634.439,1.156-.806,4.116.75,4.815-.183,7.289-2.414,6-3.632-.207-1.973-.089" transform="translate(3.702 0.167)"/>
      </g>
      <g id="Group_1112" data-name="Group 1112" transform="translate(170.92 56.807)">
        <path id="Path_1094" data-name="Path 1094" class="cls-4" d="M0,0S.666,4.357,1.734,5.175,5.253,5.8,5.253,5.8Z"/>
      </g>
      <g id="Group_1113" data-name="Group 1113" transform="translate(104.909 7.829)">
        <path id="Path_1095" data-name="Path 1095" class="cls-6" d="M-31.363-16.3c-.686-4-3.761-9.2-8.915-12.784s-13.039.439-13.039.439A13,13,0,0,0-58.83-19.31c2.039,3.931,4.677,6.959,6.058,7.421,0,0,2.488,5.1,4.433,5.758s3.871.806,4.464,1.7A19.414,19.414,0,0,1-42.523-.965s.331.622,1.031,0,1.063-1.4,1.777-1.4a3.909,3.909,0,0,1,1.437.34l3.146,1.4a3.247,3.247,0,0,0,2.087.606,21.325,21.325,0,0,0,1.906-3.552c1.569-3.585.565-8.119-.224-12.719" transform="translate(58.83 30.567)"/>
      </g>
      <g id="Group_1114" data-name="Group 1114" transform="translate(124.024 32.265)">
        <path id="Path_1096" data-name="Path 1096" class="cls-12" d="M0-6.954a45.3,45.3,0,0,0,3.939-6.09s3.09,2.595.481,5.706C2.933-5.563.262-6.355,0-6.954" transform="translate(0 13.044)"/>
      </g>
      <g id="Group_1115" data-name="Group 1115" transform="translate(126.51 33.72)">
        <path id="Path_1097" data-name="Path 1097" class="cls-13" d="M-.959-2.214A7.815,7.815,0,0,0-1.8,1.149,3.016,3.016,0,0,0,.136.1,3.657,3.657,0,0,0,.764-4.153,5.892,5.892,0,0,0-.959-2.214" transform="translate(1.798 4.153)"/>
      </g>
      <g id="Group_1116" data-name="Group 1116" transform="translate(119.864 26.508)">
        <path id="Path_1098" data-name="Path 1098" class="cls-12" d="M-1.531,0A1.352,1.352,0,0,1-.166,1.34,1.352,1.352,0,0,1-1.506,2.7a1.352,1.352,0,0,1-1.365-1.34A1.352,1.352,0,0,1-1.531,0" transform="translate(2.871 0)"/>
      </g>
      <g id="Group_1117" data-name="Group 1117" transform="translate(115.047 33.968)">
        <path id="Path_1099" data-name="Path 1099" class="cls-12" d="M-1.531,0A1.353,1.353,0,0,1-.167,1.34a1.352,1.352,0,0,1-1.34,1.365,1.353,1.353,0,0,1-1.365-1.34A1.353,1.353,0,0,1-1.531,0" transform="translate(2.872 0)"/>
      </g>
      <g id="Group_1118" data-name="Group 1118" transform="translate(89.288 0)">
        <path id="Path_1100" data-name="Path 1100" class="cls-14" d="M-47.279-24s-3.328-3.187-1.1-3.978,2.106,2.606,2.106,2.606,1,4.3,1.114,4.994,3.477,1.216,2.462-4.907-5.478-10.587-5.377-13.428-4.972-8.218-8.32-4.566c0,0-2.841-3.551-7.509-.507s-15.951,7.243-21.43,9.374-4.68,17.486,5.6,15.991c4.419-.642,3.33,4.328,6.485,4.464s11.474-9.579,10.967-14.023c0,0,1.015,4.282,5.175,1.137s1.116-6.392,1.116-6.392,1.623,5.032,3.449,5.255,3.287,5.784,4,6.393S-47.279-24-47.279-24" transform="translate(88.686 45.018)"/>
      </g>
      <g id="Group_1119" data-name="Group 1119" transform="translate(131.101 22.374)">
        <path id="Path_1101" data-name="Path 1101" class="cls-6" d="M-8.3-8.6c-3.864-1.984-6.959-7.531-6.959-7.531s-.169,1.733-.312,3.9a2.761,2.761,0,0,0,.62,1.584,15.027,15.027,0,0,1,4.26,5.253c.653,1.215.261,3.186.258,4.2C-8.364-3.337-5.547-7.184-8.3-8.6" transform="translate(15.574 16.13)"/>
      </g>
      <g id="Group_1120" data-name="Group 1120" transform="translate(166.812 28.25)">
        <path id="Path_1102" data-name="Path 1102" class="cls-6" d="M-22.858-15.429c-.515-6.444-19.452-13.512-19.452-13.512-.2.1-.384.208-.567.318a6.167,6.167,0,0,0,3.019,3.7,28.32,28.32,0,0,1,3.007,1.384,17.16,17.16,0,0,1,4.932,3.662c2.566,3.038,3.734,6.073,1.283,9.224s-7.82,8.25-1.751,16.089A4.943,4.943,0,0,0-32,5.872c.522-.233.726-.93.377-2.227-2.672-9.942,9.279-12.63,8.764-19.074" transform="translate(42.877 28.941)"/>
      </g>
      <g id="Group_1121" data-name="Group 1121" transform="translate(138.373 23.855)">
        <path id="Path_1103" data-name="Path 1103" class="cls-10" d="M0-6.908s9.8-5.419,16.742-6.014c3.355-.287,5.97,1.208,8.32,1.712A116.455,116.455,0,0,1,38.017-7.633S27.772-4.551,27.257,4.47,21.137-1.753,0-6.908" transform="translate(0 12.958)"/>
      </g>
      <g id="Group_1122" data-name="Group 1122" transform="translate(162.545 25.375)">
        <path id="Path_1104" data-name="Path 1104" class="cls-11" d="M-15.807-4.345A116.455,116.455,0,0,0-28.761-7.922c-.292-.062-.589-.141-.89-.228.443.51,4.251,2.453,4.833,2.874,3.236,2.339-2.3,3.5-1.833,13.962.036-.277.063-.583.084-.929.515-9.021,10.76-12.1,10.76-12.1" transform="translate(29.651 8.15)"/>
      </g>
      <g id="Group_1123" data-name="Group 1123" transform="translate(115.096 0.004)">
        <path id="Path_1105" data-name="Path 1105" class="cls-15" d="M-16.907-7.2c.1-2.841-4.971-8.219-8.32-4.566a5.256,5.256,0,0,0-6.487-1.083c2.006,1.281,3.877,2.961,3.9,4.793.044,3.081,2.151,8.158-.615,13.869a5,5,0,0,0,2.488-1.141C-24.179,3.345-23.71,2-23.752.886c.631,1.267,1.481,2.543,2.38,2.653,1.827.224,3.288,5.784,4,6.393s1.258-2.415,1.258-2.415-3.328-3.187-1.1-3.978,2.105,2.605,2.105,2.605,1,4.3,1.114,4.995,3.477,1.216,2.462-4.907S-17.008-4.355-16.907-7.2" transform="translate(31.714 13.498)"/>
      </g>
      <g id="Group_1124" data-name="Group 1124" transform="translate(90.822 11.052)">
        <path id="Path_1106" data-name="Path 1106" class="cls-16" d="M-6.694-15.727s-6.777-.435-5.758-8.521c.584-4.63,7.787-5.253,7.787-5.253s4.332.556,2.708,4.48-6.994,4.041-7.11,5.558,2.8,2.147,3.152,2.824.742,1.248-.778.911" transform="translate(12.557 29.5)"/>
      </g>
      <g id="Group_1125" data-name="Group 1125" transform="translate(94.287 7.83)">
        <path id="Path_1107" data-name="Path 1107" class="cls-16" d="M-13.223,0l-11.15,4.3s-1.79,1.293,1.929.392,3.618-.615,3.618-.615S-12.99,1.33-13.223,0" transform="translate(24.803)"/>
      </g>
      <g id="Group_1126" data-name="Group 1126" transform="translate(128.607 14.347)">
        <path id="Path_1108" data-name="Path 1108" class="cls-4" d="M-.091-3.1S-.424-6.346,2.026-5.737s2.827,5.783,0,5.276S-.091-3.1-.091-3.1" transform="translate(0.17 5.813)"/>
      </g>
      <g id="Group_1127" data-name="Group 1127" transform="translate(128.835 16.294)">
        <path id="Path_1109" data-name="Path 1109" class="cls-6" d="M-3.1-5.344s1.809-3.21-.292-4.319-3.456.453-1.4,3.079c0,0,1.048,1.59,1.692,1.24" transform="translate(5.808 10.024)"/>
      </g>
      <g id="Group_1128" data-name="Group 1128" transform="translate(42.564 216.124)">
        <path id="Path_1110" data-name="Path 1110" class="cls-5" d="M-2.009-.123S-3.2-.571-3.495.363-4.662,10.868-.343,17.7c0,0,1.952,4.2,4.669,4.2,1.638,0,3.034-2.1,2.567-2.626S-1.044,8.533-.869,3.806-2.009-.123-2.009-.123" transform="translate(3.768 0.23)"/>
      </g>
      <g id="Group_1129" data-name="Group 1129" transform="translate(43.521 214.772)">
        <path id="Path_1111" data-name="Path 1111" class="cls-17" d="M-3.943-1.031l2.679-.9L3.31,3.244s.013,2.791,0,7.151.391,5.072.089,6.89c-.538,3.228-3.581,5.06-5.6,2.094A28.759,28.759,0,0,1-5.818,11.7,42.556,42.556,0,0,1-7.344,2.022s-.749-3.44,3.4-3.053" transform="translate(7.397 1.933)"/>
      </g>
      <g id="Group_1130" data-name="Group 1130" transform="translate(49.2 210.881)">
        <path id="Path_1112" data-name="Path 1112" class="cls-4" d="M-9.039-6.575l-4.746-5.758L-16.82-7.976s-.7,5.291,1.089,5.68,2.8.544,2.8.544A4.311,4.311,0,0,0-11.9-3.793l.023.02Z" transform="translate(16.955 12.333)"/>
      </g>
      <g id="Group_1131" data-name="Group 1131" transform="translate(48.969 223.604)">
        <path id="Path_1113" data-name="Path 1113" class="cls-5" d="M-6.011-.8s-3.323.467-5.259-.7c0,0-.184,6.3,1.566,7.237a6.211,6.211,0,0,0,3.827.468s-.134-4.67-.135-7" transform="translate(11.275 1.5)"/>
      </g>
      <g id="Group_1132" data-name="Group 1132" transform="translate(50.658 226.176)">
        <path id="Path_1114" data-name="Path 1114" class="cls-17" d="M0,0H3.572l.241.812H.311Z"/>
      </g>
      <g id="Group_1133" data-name="Group 1133" transform="translate(51.125 228.389)">
        <path id="Path_1115" data-name="Path 1115" class="cls-17" d="M-3.7,0H-6.946V.778l3.2.177Z" transform="translate(6.946)"/>
      </g>
      <g id="Group_1134" data-name="Group 1134" transform="translate(49.541 213.739)">
        <path id="Path_1116" data-name="Path 1116" class="cls-6" d="M0-7.126a1.329,1.329,0,0,0,.883.939c1.79.389,2.8.545,2.8.545A4.315,4.315,0,0,0,4.712-7.684l.023.02,2.84-2.8-2.39-2.9c-.515.341-1.038.692-1.568,1.033A9.523,9.523,0,0,0,0-7.126" transform="translate(0 13.366)"/>
      </g>
      <g id="Group_1135" data-name="Group 1135" transform="translate(114.746 198.043)">
        <path id="Path_1117" data-name="Path 1117" class="cls-5" d="M-1.486,0s-2.281,1.838-.8,3.758S5.26,11.905,9,13.461s5.982,2.3,7.616.574a1.518,1.518,0,0,0,.183-1.974Z" transform="translate(2.787)"/>
      </g>
      <g id="Group_1136" data-name="Group 1136" transform="translate(115.581 194.507)">
        <path id="Path_1118" data-name="Path 1118" class="cls-17" d="M-2.093-2.67-.5-5.009,7.254-3.964a20.428,20.428,0,0,0,3.339,6.008c2.626,3.481,3.378,3.8,4.237,5.434,1.523,2.9.208,6.2-3.191,5.051A28.757,28.757,0,0,1,4.115,8.606a42.554,42.554,0,0,1-7.07-6.788S-5.632-.468-2.093-2.67" transform="translate(3.926 5.009)"/>
      </g>
      <g id="Group_1137" data-name="Group 1137" transform="translate(119.002 190.26)">
        <path id="Path_1119" data-name="Path 1119" class="cls-4" d="M-8.859-6.042l.622-5.291-8.171.778-.063,3.448-.148.021s.051.1.142.267l-.01.544.322.01c.835,1.432,2.636,4.185,3.876,3.609a16.083,16.083,0,0,1,3.97-1.07A3.557,3.557,0,0,0-8.91-6.043Z" transform="translate(16.617 11.333)"/>
      </g>
      <g id="Group_1138" data-name="Group 1138" transform="translate(124.316 199.014)">
        <path id="Path_1120" data-name="Path 1120" class="cls-5" d="M-4.651,0-8.439,1.829s-.642.292,0,1.051S-3.3,7.49-1.961,7.49A2.8,2.8,0,0,0,.168,6.338S-4.1.98-4.651,0" transform="translate(8.724)"/>
      </g>
      <g id="Group_1139" data-name="Group 1139" transform="translate(126.839 200.648)">
        <path id="Path_1121" data-name="Path 1121" class="cls-17" d="M-2.932,0-5.5,1.4l.561.9,2.953-1.152Z" transform="translate(5.5)"/>
      </g>
      <g id="Group_1140" data-name="Group 1140" transform="translate(129.096 203.392)">
        <path id="Path_1122" data-name="Path 1122" class="cls-17" d="M-2.789,0-5.231.642l.7.856L-2.078.749Z" transform="translate(5.231)"/>
      </g>
      <g id="Group_1141" data-name="Group 1141" transform="translate(121.362 190.26)">
        <path id="Path_1123" data-name="Path 1123" class="cls-6" d="M-6.875,0-12.61.546c-.1.259-.2.528-.286.816,0,0,.265,4.683,1.594,7.384a.838.838,0,0,0,.376-.07,16.083,16.083,0,0,1,3.97-1.07A3.557,3.557,0,0,0-7.549,5.29H-7.5Z" transform="translate(12.896)"/>
      </g>
      <g id="Group_1142" data-name="Group 1142" transform="translate(41.604 129.539)">
        <path id="Path_1124" data-name="Path 1124" class="cls-18" d="M-21.8-4.808s44.121-4.435,48.557-4.2,20.31-.467,23.578,4.2.233,32.682-.233,38.285a86.259,86.259,0,0,1-1.9,13.167c-1.608,8.486-11.692,12.21-13.275,3.174-1.572-8.979-1.388-11.076-1.4-20.777-.01-7.707,1.4-19.842-10.738-16.107S-14.1,26.707-32.3,14.1-36.273-4.575-21.8-4.808" transform="translate(40.891 9.019)"/>
      </g>
      <g id="Group_1143" data-name="Group 1143" transform="translate(43.304 137.113)">
        <path id="Path_1125" data-name="Path 1125" class="cls-3" d="M-88.925-10.216c-.831-8.093-63.769-8.939-63.769-8.939-6.372-.214-11.393,3.708-14.11,9.328a28.82,28.82,0,0,0,6.887,6.209c18.209,12.606,42.954,2.568,55.093-1.167s10.729,8.4,10.738,16.107c0,2.7-.008,4.8.007,6.635a1.627,1.627,0,0,0,.37-.479c3.464-11.332,5.614-19.6,4.783-27.695" transform="translate(166.804 19.164)"/>
      </g>
      <g id="Group_1144" data-name="Group 1144" transform="translate(117.378 146.652)">
        <path id="Path_1126" data-name="Path 1126" class="cls-3" d="M-15.208-44.018a86.259,86.259,0,0,0,1.9-13.167c.29-3.476,1.568-15.581,1.715-25.383-.142,2.506.5,22.766-9.028,36.141-1.691,2.374-3.922,4.977-7.906,5.323.015.087.029.171.044.259,1.582,9.036,11.668,5.313,13.275-3.174" transform="translate(28.527 82.568)"/>
      </g>
      <g id="Group_1145" data-name="Group 1145" transform="translate(23.256 135.134)">
        <path id="Path_1127" data-name="Path 1127" class="cls-18" d="M-.1-12.014S-1.736,4.794,9,9.463s36.184,4.2,43.654,1.868c0,0-20.777,31.048-22.644,35.484s-3.735,8.265-.233,11.767,8.171.606,15.407-6.864S77.4,15.066,77.4,15.066,91.175-.808,85.339-5.944,48.688-13.415,41.918-17.15a47.414,47.414,0,0,0-17.041-5.369C21.142-22.986-.335-13.415-.1-12.014" transform="translate(0.191 22.535)"/>
      </g>
      <g id="Group_1146" data-name="Group 1146" transform="translate(23.263 148.731)">
        <path id="Path_1128" data-name="Path 1128" class="cls-3" d="M-6.364-10.279c-2.132-2.315,11.77-7.5-5.574-9,.1,5.074,1.327,14.985,9.186,18.4C2.361,1.344,10.81,2.4,19.066,2.647-.056-.879-6.364-10.279-6.364-10.279" transform="translate(11.938 19.282)"/>
      </g>
      <g id="Group_1147" data-name="Group 1147" transform="translate(57.043 147.889)">
        <path id="Path_1129" data-name="Path 1129" class="cls-3" d="M-59.081-4.381C-60.76-5.858-64.508-7.1-69.153-8.217c0,0,9.625,6.28,1.367,18.567-6.078,9.044-29.933,37.024-43.037,51.242,2.978-.3,6.7-3.26,11.59-8.311C-92,45.81-67.019,16.629-67.019,16.629S-53.245.755-59.081-4.381" transform="translate(110.824 8.217)"/>
      </g>
      <g id="Group_1148" data-name="Group 1148" transform="translate(48.323 97.566)">
        <path id="Path_1130" data-name="Path 1130" class="cls-4" d="M-15.194,0l3.035,6.3a11.432,11.432,0,0,0,.788,1.407,4.879,4.879,0,0,0,1.079.694s24.045,5.136,25.679,6.07,13.073,2.568,10.738,6.07-16.343.017-25.912-.7c-6.479-.486-13.331.307-17.586-.839a8.044,8.044,0,0,1-4.037-2.685c-.569-.736-1.509-2.242-1.509-2.242L-28.5,3.713Z" transform="translate(28.5)"/>
      </g>
      <g id="Group_1149" data-name="Group 1149" transform="translate(56.165 97.566)">
        <path id="Path_1131" data-name="Path 1131" class="cls-6" d="M-41.738-16.773a3.368,3.368,0,0,1-.508-.216c-1.634-.934-25.679-6.07-25.679-6.07A4.879,4.879,0,0,1-69-23.752a11.433,11.433,0,0,1-.788-1.407l-3.035-6.3-5.464,1.525s2.933,8.958,5.833,10.592,27.488,4.319,27.488,4.319a25.169,25.169,0,0,0,3.233-1.746" transform="translate(78.292 31.462)"/>
      </g>
      <g id="Group_1150" data-name="Group 1150" transform="translate(46.456 76.79)">
        <path id="Path_1132" data-name="Path 1132" class="cls-10" d="M0,0S4.9,1.4,7.237,3.268,16.808,18.909,17.508,20.31,5.428,30.792,5.428,30.792L2.51,21.63,3.268,7.237Z"/>
      </g>
      <g id="Group_1151" data-name="Group 1151" transform="translate(15.284 76.789)">
        <path id="Path_1133" data-name="Path 1133" class="cls-10" d="M-11.692-.374s7.713,3.359,13.081,3.25C3.651,2.83,2.928.15,5.184-.4,6.507-.724,8.1-.045,9.24-.7c0,0,4.2,3.735,4.2,7.47s1.167,21.243,1.167,21.243l1.868,6.77,3.735,11.906,8.933,6.164s-1,10.177-16.4,18.52C2.48,76.928-11.392,81.233-11.392,81.233l-4.9.661s-9.949-35.112-3.413-55.422,5.058-24.28,5.058-24.28Z" transform="translate(21.932 0.702)"/>
      </g>
      <g id="Group_1152" data-name="Group 1152" transform="translate(38.604 76.789)">
        <path id="Path_1134" data-name="Path 1134" class="cls-11" d="M-31.693-61.149l-8.933-6.164-3.735-11.906-1.868-6.77S-47.4-103.5-47.4-107.232s-4.2-7.47-4.2-7.47c-.448.189-2.734-.022-4.056.3-2.256.551-1.532,3.231-3.795,3.277,0,0,3.362,1.107,3,13.48S-59.285-83.955-57.936-77.8s5.909,11.361,7.563,17.742a41.608,41.608,0,0,1,1.109,18.049c.393-.2.784-.41,1.168-.618,15.407-8.343,16.4-18.52,16.4-18.52" transform="translate(59.45 114.702)"/>
      </g>
      <g id="Group_1153" data-name="Group 1153" transform="translate(25.5 47.697)">
        <path id="Path_1135" data-name="Path 1135" class="cls-4" d="M-3.825-34.926s-3.675-.9-3.326-1.167C-2.4-39.746-5.9-59.892-5.256-64.107c.711-4.689,12.44,3.735,13.4,5.019s-4.92,16.83-4.92,16.83-.069,7.843,10.553,5.836A14.877,14.877,0,0,1-3.825-34.926" transform="translate(7.174 65.514)"/>
      </g>
      <g id="Group_1154" data-name="Group 1154" transform="translate(31.282 60.776)">
        <path id="Path_1136" data-name="Path 1136" class="cls-6" d="M-6.841,0l-5.992,8.646s-.008,5.846,3.657,8.4a19.591,19.591,0,0,0,5.106,2.28,15.052,15.052,0,0,0,6.41-3.308C-8.281,18.021-8.212,10.177-8.212,10.177s1.843-4.87,3.3-9.383L-6.841,0" transform="translate(12.833 0)"/>
      </g>
      <g id="Group_1155" data-name="Group 1155" transform="translate(0 111.805)">
        <path id="Path_1137" data-name="Path 1137" class="cls-7" d="M-23.546-2.331S-38.331,3.084-44.167,1c0,0,4.436-5.463,14.4-5.369s7.868,1.561,6.225,2.04" transform="translate(44.167 4.372)"/>
      </g>
      <g id="Group_1156" data-name="Group 1156" transform="translate(27.418 34.838)">
        <path id="Path_1138" data-name="Path 1138" class="cls-4" d="M-4.521-41.218S-15.726-72.522-.436-76.17c11.921-2.843,15.273.178,18.092,2.8,4.291,3.991,4.421,7.873,3.056,14.52-1.387,6.756-.613,3.64-1.984,9.571C16.86-41.2,6.684-35.382-4.521-41.218" transform="translate(8.48 77.317)"/>
      </g>
      <g id="Group_1157" data-name="Group 1157" transform="translate(57.414 108.538)">
        <path id="Path_1139" data-name="Path 1139" class="cls-19" d="M-82.914-4l-42.254-3.5-28.947,19.609s-3.735,2.8.934,3.969,30.348.7,30.348.7S-74.044-4.232-82.914-4" transform="translate(155.53 7.5)"/>
      </g>
      <g id="Group_1158" data-name="Group 1158" transform="translate(58.365 108.538)">
        <path id="Path_1140" data-name="Path 1140" class="cls-20" d="M-83.016-4.281c-.1-.175-.424-.264-1.041-.248l-42.254-3.5-27.333,18.515c-1.017.689-2.077,1.577-2.077,1.577l34.7.909Z" transform="translate(155.72 8.031)"/>
      </g>
      <g id="Group_1159" data-name="Group 1159" transform="translate(78.127 111.806)">
        <path id="Path_1141" data-name="Path 1141" class="cls-21" d="M0-15.656,18.519-29.368l6.616,3.285L14.006-14.567Z" transform="translate(0 29.368)"/>
      </g>
      <g id="Group_1160" data-name="Group 1160" transform="translate(76.103 116.242)">
        <path id="Path_1142" data-name="Path 1142" class="cls-21" d="M0-5.117l4.513.9,6.07-4.513L6.848-9.6Z" transform="translate(0 9.599)"/>
      </g>
      <g id="Group_1161" data-name="Group 1161" transform="translate(88.693 70.953)">
        <path id="Path_1143" data-name="Path 1143" class="cls-22" d="M-.552-70.637c1.514,1.3,14.24-6.07,21.944-9.1S43.336-90.013,43.336-90.013L58.51-132.5s.934.467-2.334.467-37.118,16.108-37.118,16.108L.849-76.94s-3.035,4.9-1.4,6.3" transform="translate(1.035 132.5)"/>
      </g>
      <g id="Group_1162" data-name="Group 1162" transform="translate(90.11 71.927)">
        <path id="Path_1144" data-name="Path 1144" class="cls-23" d="M-65.975,0l-37.663,16.707-20.117,44.183L-80.8,41.514Z" transform="translate(123.755)"/>
      </g>
      <g id="Group_1163" data-name="Group 1163" transform="translate(121.183 93.847)">
        <path id="Path_1145" data-name="Path 1145" class="cls-24" d="M-4.135-.065C-1.621-.531-.024,1.947-1.017,4.648S-3.662,9-6.513,7.8-6.77.424-4.135-.065" transform="translate(7.757 0.122)"/>
      </g>
      <g id="Group_1164" data-name="Group 1164" transform="translate(43.15 34.878)">
        <path id="Path_1146" data-name="Path 1146" class="cls-6" d="M-11.88-4.462a12.2,12.2,0,0,0-8.5-3.907c1.629,5.471,3.2,10.4,3.855,11.424,0,0,3.086,3.268.523,10.092l-.692.167a13.341,13.341,0,0,0-.414,2.764c.078.75,2.462,3.474,2.2,4.1s-3.21.174-3.757,1.245c-.524,1.026-.478,6.583-3.62,8.416A13.871,13.871,0,0,0-10.809,19.63c1.371-5.931.6-2.815,1.984-9.571C-7.46,3.411-7.59-.471-11.88-4.462" transform="translate(22.285 8.369)"/>
      </g>
      <g id="Group_1165" data-name="Group 1165" transform="translate(50.527 56.395)">
        <path id="Path_1147" data-name="Path 1147" class="cls-12" d="M-.288-.735A1.465,1.465,0,0,0,.1,1.3,1.464,1.464,0,0,0,2.138.909,1.465,1.465,0,1,0-.288-.735" transform="translate(0.54 1.379)"/>
      </g>
      <g id="Group_1166" data-name="Group 1166" transform="translate(40.441 55.801)">
        <path id="Path_1148" data-name="Path 1148" class="cls-12" d="M-.289-.735A1.464,1.464,0,0,0,.1,1.3,1.464,1.464,0,0,0,2.137.908a1.464,1.464,0,0,0-.392-2.035A1.464,1.464,0,0,0-.289-.735" transform="translate(0.541 1.379)"/>
      </g>
      <g id="Group_1167" data-name="Group 1167" transform="translate(41.37 65.528)">
        <path id="Path_1149" data-name="Path 1149" class="cls-12" d="M-8.971-.111a49.072,49.072,0,0,1-7.857-.1s.489,4.343,4.86,3.856c2.493-.278,3.378-3.162,3-3.758" transform="translate(16.828 0.209)"/>
      </g>
      <g id="Group_1168" data-name="Group 1168" transform="translate(42.017 66.983)">
        <path id="Path_1150" data-name="Path 1150" class="cls-13" d="M-3.177-.029A8.457,8.457,0,0,1,.36,1.23,3.263,3.263,0,0,1-1.747,2.345,3.962,3.962,0,0,1-5.96.363,6.388,6.388,0,0,1-3.177-.029" transform="translate(5.96 0.055)"/>
      </g>
      <g id="Group_1169" data-name="Group 1169" transform="translate(15.284 112.632)">
        <path id="Path_1151" data-name="Path 1151" class="cls-11" d="M-15.475-51.5c-2.975-2.123-7.443-9-9.072-18.353C-26.414-80.576-22.4-96.5-22.4-96.5c-1.218-.37-3.531.338-6.366,1.738-1.684,20,5.377,44.918,5.377,44.918l4.9-.661s1.144-.356,3.013-.992" transform="translate(29.027 96.599)"/>
      </g>
      <g id="Group_1170" data-name="Group 1170" transform="translate(3.64 108.071)">
        <path id="Path_1152" data-name="Path 1152" class="cls-4" d="M-.109-6.4S-1.276,6.909,4.56,10.177s42.02,1.4,48.557,5.6,11.267,4.53,11.205,1.634C64.173,10.378,54.05,4.575,49.148,2.707S19.967-3.891,15.3-4.825L19.034-12S1.292-11.066-.109-6.4" transform="translate(0.204 12)"/>
      </g>
      <g id="Group_1171" data-name="Group 1171" transform="translate(55.409 134.978)">
        <path id="Path_1153" data-name="Path 1153" class="cls-6" d="M0-.179S2.062,3.245,4.352,3.55,9.4,4.207,8.582,5.3,5.87,7.286,7.5,7.986s7.237-5.23,5.253-5.813S3.235-.99,0-.179" transform="translate(0 0.335)"/>
      </g>
      <g id="Group_1172" data-name="Group 1172" transform="translate(62.68 133.46)">
        <path id="Path_1154" data-name="Path 1154" class="cls-6" d="M-4.947,0s2.263,3.886,2.087,4.936-.533,2.6-1.206,3.074c-.829.585-.935.839-1.323.973-.639.221-1.031-.288-.21-2.412,1.047-2.706-3.68-5.544-3.68-5.544Z" transform="translate(9.279)"/>
      </g>
      <g id="Group_1173" data-name="Group 1173" transform="translate(63.992 129.954)">
        <path id="Path_1155" data-name="Path 1155" class="cls-6" d="M0,0S7.909,7.47,7.676,8.559,1.9,5.6,1.9,5.6Z"/>
      </g>
      <g id="Group_1174" data-name="Group 1174" transform="translate(55.409 82.15)">
        <path id="Path_1156" data-name="Path 1156" class="cls-11" d="M-1.032-25.308C2.587-28.06,7.041-31.68,6.62-32.523c-.571-1.142-5.494-10.52-8.555-14.949h0S3-36.468,1.6-32.056a42.544,42.544,0,0,1-2.633,6.748" transform="translate(1.935 47.472)"/>
      </g>
      <g id="Group_1175" data-name="Group 1175" transform="translate(7.383 108.071)">
        <path id="Path_1157" data-name="Path 1157" class="cls-6" d="M0-3.121A26.172,26.172,0,0,0,.321.076S8.947.193,11.287,1.36a3.913,3.913,0,0,0,2.105.285L11.76,1.322,15.5-5.854S5.593-5.332,0-3.121" transform="translate(0 5.854)"/>
      </g>
      <g id="Group_1176" data-name="Group 1176" transform="translate(0 79.683)">
        <path id="Path_1158" data-name="Path 1158" class="cls-10" d="M-25.767,0S-37.993,8.964-39.579,10.74c-6.77,7.584-7.12,15.314-7.587,18.815s-1.167,7.937-1.167,7.937,6.243-5.866,21.243-3.875c.961.127,3.969-7.331,6.536-14.334S-20.164,1.868-25.767,0" transform="translate(48.333)"/>
      </g>
      <g id="Group_1177" data-name="Group 1177" transform="translate(21.794 94.417)">
        <path id="Path_1159" data-name="Path 1159" class="cls-11" d="M-.245-21.563C8.484-36.435,6.509-40.447,6.509-40.447c.1,4.794-6.968,18.215-6.968,18.215.539-.187.214.669.214.669" transform="translate(0.459 40.447)"/>
      </g>
      <g id="Group_1178" data-name="Group 1178" transform="translate(3.005 77.737)">
        <path id="Path_1160" data-name="Path 1160" class="cls-25" d="M-27.217,0s-15.636,12.943-17.27,14.449-5.9,7.63-6.567,22.543l4.7-.728s-.4-11.725,3.3-17.768,18.8-17.444,18.8-17.444Z" transform="translate(51.054)"/>
      </g>
      <g id="Group_1179" data-name="Group 1179" transform="translate(10.388 101.493)">
        <path id="Path_1161" data-name="Path 1161" class="cls-11" d="M-19.148,0A24.432,24.432,0,0,1-35.917,11.642s4.745-.184,11.4.166c0,0,4.665-8.443,5.371-11.809" transform="translate(35.917)"/>
      </g>
      <g id="Group_1180" data-name="Group 1180" transform="translate(12.155 131.297)">
        <path id="Path_1162" data-name="Path 1162" class="cls-6" d="M-51.16-5.2C-44.623-1-39.893-.67-39.955-3.565a9.941,9.941,0,0,0-2.3-5.776A2.384,2.384,0,0,1-44.514-7.59c-3.406,0-1.627-1.95-15.925-2.028s-35.485-.134-35.526-.134c11.1,1.832,39.13.9,44.805,4.554" transform="translate(95.965 9.753)"/>
      </g>
      <g id="Group_1181" data-name="Group 1181" transform="translate(31.924 53.443)">
        <path id="Path_1163" data-name="Path 1163" class="cls-6" d="M-7.464-3.561-14-5.124l.467-1.555,6.478,1.847Z" transform="translate(14 6.679)"/>
      </g>
      <g id="Group_1182" data-name="Group 1182" transform="translate(18.67 29.782)">
        <path id="Path_1164" data-name="Path 1164" class="cls-26" d="M-44.788-22.729s4.085.35,3.5-2.568-2.918-2.334-1.167-5.019,3.043-4.786-1.863-5.6-2.222-2.579-9.225-5.433-6.981-.064-13.237,0S-77.12-44.269-79.571-39.42s-2.439,4.786-2.037,8.521-2.4,2.1-2.282,7.12c.042,1.833.62,3.039.584,3.951-.064,1.585-.777,2.271-.7,3.753.121,2.334,2.918.79,3.152,4.656S-79.1-7.2-77.82-6.271s1.921,1.3,2.9,1.906.6-9.937.483-10.824-1.051-2.828-.584-4.579a1.1,1.1,0,0,1,1.138-.9c.455-.021,1.054,7.137,1.625,7.249s3.449-6.823,4.007-6.858c1.786-.112-.632-5.342,2.4-4.525s1.216-1.427,3.317-2.128.934,1.5,4.319,2.211,1.984-1.161,6.07-.694,2.827,1.639,4.682,2.685,2.671,0,2.671,0" transform="translate(84.012 42.635)"/>
      </g>
      <g id="Group_1183" data-name="Group 1183" transform="translate(45.393 29.911)">
        <path id="Path_1165" data-name="Path 1165" class="cls-27" d="M-14.812-7.521c-4.907-.817-2.222-2.579-9.225-5.433a18.077,18.077,0,0,0-3.747-1.153c3.128,3.221,8.021,9.845,4.337,17.026.244.011.511.032.811.066,4.085.467,2.827,1.639,4.683,2.685s2.671,0,2.671,0,4.085.35,3.5-2.568S-14.7.767-12.949-1.918s3.043-4.786-1.863-5.6" transform="translate(27.785 14.107)"/>
      </g>
      <g id="Group_1184" data-name="Group 1184" transform="translate(23.273 31.641)">
        <path id="Path_1166" data-name="Path 1166" class="cls-28" d="M-16.848-1.458a25.33,25.33,0,0,1-7.239-.934c-3.948-1.089-6.277.467-7.056,3.891s-.5,6.2.294,6.233c.708.027-.754-3.159,1.84-7.23,1.4-2.195,5.238-.623,7.661-.715s4.711,0,4.5-1.245" transform="translate(31.603 2.736)"/>
      </g>
      <g id="Group_1185" data-name="Group 1185" transform="translate(38.028 52.616)">
        <path id="Path_1167" data-name="Path 1167" class="cls-5" d="M-4.362-10.384a3.88,3.88,0,0,1-3-4.563,3.88,3.88,0,0,1,4.1-3.608,3.88,3.88,0,0,1,3,4.563,3.88,3.88,0,0,1-4.1,3.608m1.22-9.06c-2.385-.321-4.619,1.645-4.989,4.392S-6.867-9.817-4.482-9.5.136-11.141.506-13.888s-1.263-5.235-3.648-5.556" transform="translate(8.183 19.479)"/>
      </g>
      <g id="Group_1186" data-name="Group 1186" transform="translate(48.408 53.444)">
        <path id="Path_1168" data-name="Path 1168" class="cls-5" d="M-3.871-9.214a3.443,3.443,0,0,1-2.66-4.049,3.443,3.443,0,0,1,3.637-3.2,3.444,3.444,0,0,1,2.659,4.05,3.443,3.443,0,0,1-3.636,3.2m1.083-8.039a4.191,4.191,0,0,0-4.427,3.9,4.19,4.19,0,0,0,3.237,4.93,4.19,4.19,0,0,0,4.427-3.9,4.191,4.191,0,0,0-3.237-4.93" transform="translate(7.262 17.284)"/>
      </g>
      <g id="Group_1187" data-name="Group 1187" transform="translate(27.817 51.717)">
        <path id="Path_1169" data-name="Path 1169" class="cls-5" d="M-.924-.053,9.689,3.333,9.2,3.985-1.692.972S-2-.36-.924-.053" transform="translate(1.732 0.099)"/>
      </g>
      <g id="Group_1188" data-name="Group 1188" transform="translate(46.456 55.857)">
        <path id="Path_1170" data-name="Path 1170" class="cls-5" d="M-.178-1.61S1.1-2.38,1.717-1.8l.4-.892a2.282,2.282,0,0,0-2.451,0Z" transform="translate(0.333 3.02)"/>
      </g>
      <g id="Group_1189" data-name="Group 1189" transform="translate(24.735 52.138)">
        <path id="Path_1171" data-name="Path 1171" class="cls-4" d="M-4.81-1.867s-2.1-2.3-3.035-1.443-2.1,6.228,0,6.578A3.77,3.77,0,0,0-4.81,2.8Z" transform="translate(9.022 3.501)"/>
      </g>
      <g id="Group_1190" data-name="Group 1190" transform="translate(25.867 54.565)">
        <path id="Path_1172" data-name="Path 1172" class="cls-6" d="M-2.717-3.04s-1.089.008-.622-.77.74-1.836-.116-1.89S-5.6-4.783-4.9-3.927s1.05,2.123,2.179.887" transform="translate(5.097 5.703)"/>
      </g>
    </g>
  </g>
</svg>
